<?xml version="1.0" standalone="no"?>
<!DOCTYPE svg PUBLIC "-//W3C//DTD SVG 20010904//EN"
 "http://www.w3.org/TR/2001/REC-SVG-20010904/DTD/svg10.dtd">
<svg version="1.0" xmlns="http://www.w3.org/2000/svg"
 width="304.000000pt" height="400.000000pt" viewBox="0 0 304.000000 400.000000"
 preserveAspectRatio="xMidYMid meet">

<g transform="translate(0.000000,400.000000) scale(0.100000,-0.100000)"
fill="#000000" stroke="none">
<path d="M0 2000 l0 -2000 1520 0 1520 0 0 2000 0 2000 -1520 0 -1520 0 0
-2000z m1970 1896 c-1 -5 4 -12 11 -16 16 -11 4 -40 -17 -40 -11 0 -15 6 -11
19 3 11 -1 22 -9 25 -10 4 -12 -2 -8 -23 4 -21 1 -30 -11 -35 -14 -5 -17 -2
-13 19 4 16 1 25 -8 25 -17 0 -27 -17 -12 -22 17 -6 2 -38 -18 -38 -11 0 -15
6 -11 19 3 12 -1 22 -10 25 -21 9 -5 28 18 21 11 -4 19 -2 19 4 0 6 9 11 19
11 11 0 23 5 26 11 8 12 37 8 35 -5z m-132 -48 c5 -7 10 -30 10 -51 0 -39 -19
-58 -48 -50 -13 4 -13 3 -1 -6 10 -6 21 -6 33 0 15 8 18 6 18 -10 0 -26 -15
-34 -46 -27 -15 4 -24 14 -24 25 0 24 25 45 44 38 10 -4 13 -1 9 9 -6 17 -17
18 -45 3 -19 -10 -20 -9 -16 14 4 19 0 27 -14 30 -10 3 -16 1 -13 -3 3 -5 2
-10 -2 -13 -5 -2 -2 -2 5 -1 6 2 12 -5 12 -16 0 -11 -2 -20 -4 -20 -2 0 -11
-3 -20 -6 -11 -4 -16 0 -16 14 0 12 -4 23 -9 26 -5 4 -7 -4 -4 -15 7 -25 -20
-51 -43 -42 -8 3 -14 0 -14 -6 0 -6 5 -11 10 -11 20 0 10 -38 -11 -43 -18 -5
-20 -2 -17 18 4 17 0 25 -14 28 -10 3 -16 2 -13 -3 6 -9 -23 -22 -34 -15 -5 2
-6 -7 -3 -22 3 -18 1 -24 -7 -19 -21 13 -12 45 18 60 27 15 70 27 101 29 10 1
15 11 15 26 0 28 39 54 81 54 13 0 24 3 24 8 0 13 26 11 38 -3z m102 -48 c0
-11 -7 -20 -15 -20 -15 0 -21 21 -8 33 12 13 23 7 23 -13z m-52 -31 c-10 -6
-10 -9 0 -9 20 0 14 -37 -7 -43 -17 -4 -19 1 -19 39 0 32 4 44 16 46 21 4 29
-21 10 -33z m-128 -28 c0 -10 -9 -21 -20 -24 -15 -4 -20 0 -20 13 0 17 12 27
33 29 4 1 7 -7 7 -18z m-54 -26 c-3 -8 -10 -15 -16 -15 -14 0 -12 37 3 43 15
5 21 -8 13 -28z m324 5 c11 -11 23 -21 28 -22 4 -2 6 -6 5 -10 -2 -5 2 -8 7
-8 6 0 10 -9 10 -20 0 -11 -7 -20 -15 -20 -8 0 -15 9 -15 20 0 11 -4 20 -9 20
-5 0 -7 -9 -4 -21 5 -19 -9 -38 -29 -39 -14 0 -9 40 5 41 10 0 10 2 0 6 -7 2
-13 13 -13 23 0 10 -5 22 -10 25 -12 7 -4 25 11 25 5 0 18 -9 29 -20z m125 14
c13 -6 14 -9 3 -16 -8 -6 6 -7 38 -3 39 5 53 3 63 -9 8 -9 19 -16 27 -16 15 0
22 -21 23 -72 0 -26 -4 -38 -13 -38 -17 0 -19 72 -3 82 8 5 7 8 -3 8 -8 0 -22
-5 -30 -10 -9 -6 -10 -10 -3 -10 7 0 11 -15 10 -42 -2 -32 -6 -44 -19 -46 -13
-2 -18 3 -18 17 0 12 6 21 13 21 8 0 9 3 1 8 -14 9 -16 75 -2 83 5 3 -1 8 -14
11 -16 3 -25 0 -25 -9 0 -7 4 -13 8 -13 5 0 8 -29 7 -65 -1 -50 -5 -66 -17
-69 -9 -2 -26 -7 -38 -11 -19 -5 -23 -2 -23 14 0 11 -4 23 -10 26 -6 4 -7 -6
-4 -25 5 -22 3 -30 -7 -30 -11 0 -11 -2 1 -9 8 -6 18 -7 22 -5 5 3 11 -2 14
-10 9 -23 26 -19 19 4 -5 16 -2 20 14 20 20 0 29 -14 14 -23 -5 -2 -3 -2 4 -1
8 2 12 -11 11 -39 0 -37 -2 -39 -14 -22 -12 16 -17 17 -40 6 -25 -11 -26 -11
-22 14 5 24 3 26 -22 20 -27 -6 -28 -4 -28 34 -1 25 4 41 11 42 7 0 1 5 -13
10 -25 10 -25 11 14 24 26 9 45 11 57 4 10 -5 24 -9 31 -8 7 0 2 5 -12 10 -19
8 -21 12 -11 19 8 4 20 6 28 3 9 -4 11 0 7 11 -4 10 -13 15 -20 12 -8 -3 -21
-9 -29 -12 -11 -4 -15 0 -15 15 0 12 6 21 13 21 8 0 9 2 1 8 -7 4 -13 16 -15
26 -2 11 -11 21 -19 24 -12 4 -13 2 -2 -9 6 -7 12 -21 12 -31 0 -10 -6 -18
-12 -19 -10 0 -10 -2 0 -6 6 -2 12 -12 12 -20 0 -14 -3 -14 -20 2 -22 20 -27
55 -7 56 6 0 1 5 -13 11 l-25 10 35 13 c19 7 36 13 37 14 1 0 9 -2 18 -5z
m-539 -49 c-7 -19 -36 -19 -36 0 0 17 33 38 38 24 2 -5 1 -16 -2 -24z m362 23
c11 -11 17 -48 8 -48 -2 0 -11 -3 -20 -6 -11 -4 -16 0 -16 14 0 11 6 23 13 25
7 3 6 6 -5 6 -9 1 -20 6 -23 11 -9 14 29 12 43 -2z m-195 -17 c-4 -14 8 -14
41 -1 23 8 26 7 26 -10 0 -11 -6 -20 -12 -20 -10 0 -10 -2 0 -9 8 -5 12 -22
10 -46 -3 -33 -7 -38 -42 -50 -38 -13 -38 -13 -33 11 2 13 1 24 -4 24 -4 0 -9
-12 -11 -27 -3 -30 -38 -47 -38 -19 0 8 8 20 18 26 16 11 16 11 -2 6 -15 -5
-18 -2 -14 18 3 17 0 27 -11 31 -13 5 -13 8 -2 15 8 4 19 7 25 6 6 -2 8 -1 4
1 -15 8 -8 42 10 52 20 12 38 8 35 -8z m140 0 c-2 -6 2 -11 7 -11 6 0 10 -9
10 -20 0 -27 -28 -26 -32 2 -2 12 -10 23 -18 26 -12 4 -13 2 -2 -9 11 -12 17
-49 8 -49 -2 0 -11 -3 -20 -6 -28 -11 -21 60 7 74 26 12 43 9 40 -7z m-363
-31 c14 -26 9 -92 -7 -98 -8 -2 -13 5 -13 17 0 12 6 21 13 21 8 0 9 2 1 8 -7
4 -14 16 -17 27 -4 18 -5 17 -6 -3 -1 -14 -6 -22 -13 -20 -21 7 -22 41 -2 55
24 18 31 16 44 -7z m48 -31 c-20 -13 -28 -11 -28 10 0 23 33 33 38 12 2 -7 -2
-17 -10 -22z m745 9 c13 -20 2 -48 -18 -48 -18 0 -21 40 -2 41 10 0 10 2 0 6
-16 6 -17 26 -1 21 6 -2 16 -11 21 -20z m-363 -4 c0 -8 -4 -12 -10 -9 -5 3
-10 10 -10 16 0 5 5 9 10 9 6 0 10 -7 10 -16z m-686 -26 c27 -17 35 -29 33
-47 -3 -30 -27 -41 -27 -12 0 12 5 21 12 21 6 0 9 2 6 5 -13 13 -35 -8 -31
-29 4 -17 -1 -25 -16 -29 -16 -4 -21 0 -21 14 0 10 6 19 13 20 10 0 10 2 0 6
-7 2 -13 13 -13 23 0 10 6 20 13 23 6 3 3 5 -9 4 -19 -1 -21 -6 -16 -44 3 -30
1 -43 -8 -43 -7 0 -10 7 -6 16 4 12 2 15 -9 10 -10 -4 -15 1 -15 14 0 11 6 20
13 21 6 0 1 5 -13 10 -19 8 -21 12 -11 19 8 4 20 6 27 3 6 -2 15 0 19 6 9 16
19 14 59 -11z m118 9 c7 -7 22 -17 33 -21 17 -6 18 -9 5 -15 -8 -5 -25 -12
-37 -15 -19 -6 -23 -3 -23 12 0 11 6 22 13 25 6 3 3 5 -9 4 -19 -1 -21 -6 -16
-44 5 -43 -4 -53 -26 -31 -16 16 -15 48 1 49 6 0 1 5 -13 10 -19 8 -21 12 -11
19 8 4 20 6 27 3 6 -2 15 0 19 6 8 15 21 14 37 -2z m108 -49 c0 -10 -8 -19
-17 -19 -17 -1 -17 -2 0 -6 22 -6 18 -37 -6 -41 -14 -3 -17 4 -17 36 0 23 5
43 13 45 6 3 2 6 -10 6 -25 1 -31 16 -10 24 17 6 47 -22 47 -45z m178 2 c0
-27 -4 -51 -9 -51 -32 -5 -43 -2 -53 13 -13 22 -1 35 18 19 8 -7 17 -8 20 -3
3 6 -4 13 -17 17 -21 8 -21 8 4 12 21 3 26 9 22 24 -3 10 -1 19 5 19 5 0 10
-22 10 -50z m-520 21 c16 -10 12 -53 -5 -58 -6 -2 -13 6 -15 18 -2 12 -10 24
-18 27 -12 4 -13 2 -2 -9 6 -7 12 -21 12 -31 0 -10 -6 -18 -12 -18 -9 0 -8 -3
2 -9 8 -6 17 -8 22 -5 9 6 28 -29 28 -50 0 -9 -7 -16 -15 -16 -8 0 -15 9 -15
20 0 11 -4 20 -9 20 -5 0 -7 -10 -4 -21 5 -16 2 -20 -8 -17 -8 3 -13 11 -11
17 1 6 -2 11 -7 11 -13 0 -11 74 2 82 7 5 3 8 -10 8 -24 0 -40 -16 -21 -22 7
-3 9 -12 5 -22 -10 -26 -61 -18 -65 11 -3 23 30 49 48 38 6 -3 10 -2 10 2 0 7
35 23 70 31 3 1 11 -2 18 -7z m289 -45 c-3 -7 -20 -16 -38 -20 -18 -3 -29 -9
-26 -12 3 -4 20 -2 36 4 27 10 31 9 31 -7 0 -17 -18 -31 -40 -31 -15 0 -40 31
-40 49 0 12 13 24 38 33 37 14 49 9 39 -16z m603 -6 c0 -11 -4 -20 -10 -20 -5
0 -10 9 -10 20 0 11 5 20 10 20 6 0 10 -9 10 -20z m164 -6 c9 -3 13 -10 10
-15 -3 -5 0 -10 5 -10 6 -1 16 -2 21 -3 27 -3 41 -66 15 -66 -8 0 -15 9 -15
20 0 11 -4 20 -9 20 -5 0 -7 -9 -4 -21 4 -12 0 -25 -8 -30 -22 -14 -29 -11
-29 11 0 11 6 20 13 20 8 0 8 3 -2 9 -8 5 -11 16 -8 24 3 9 -1 18 -9 21 -9 3
-12 10 -9 16 7 12 8 12 29 4z m-1004 -29 c7 -8 17 -15 22 -15 23 0 79 -54 76
-73 -4 -27 -28 -34 -28 -9 0 11 6 23 13 26 13 6 -30 -4 -50 -11 -9 -4 -13 5
-13 27 0 29 -1 30 -16 16 -21 -21 -34 -20 -34 3 0 11 -3 26 -6 35 -8 21 19 21
36 1z m828 3 c5 -7 10 -31 10 -53 0 -36 -1 -38 -14 -20 -17 23 -18 52 -1 59 6
2 2 4 -10 2 -24 -2 -44 -16 -25 -16 20 0 13 -29 -9 -41 -20 -10 -21 -9 -17 14
3 18 0 28 -11 32 -13 5 -13 8 -2 15 8 4 20 6 28 3 7 -3 13 0 13 6 0 15 25 14
38 -1z m276 3 c4 -5 0 -12 -6 -14 -12 -5 35 -2 77 5 12 2 19 -2 18 -9 -2 -7 1
-13 7 -13 5 0 9 -28 9 -65 -1 -41 -5 -65 -13 -65 -7 0 -6 -3 2 -9 17 -10 12
-83 -5 -89 -8 -2 -13 5 -13 17 0 12 6 21 13 21 9 0 9 2 0 8 -16 10 -15 124 1
134 8 6 7 8 -1 8 -7 0 -13 9 -13 19 0 10 -8 22 -17 26 -15 5 -16 4 -5 -6 6 -7
12 -21 12 -31 0 -10 -6 -18 -12 -19 -10 0 -10 -2 0 -6 18 -7 15 -30 -5 -42
-16 -9 -16 -10 -1 -11 12 0 16 -9 16 -37 0 -21 -5 -41 -11 -45 -9 -6 -9 -8 1
-8 6 0 12 -7 12 -15 0 -23 -29 -6 -36 22 -4 16 -2 28 7 34 10 6 11 9 2 9 -7 0
-13 9 -13 19 0 11 -5 23 -10 26 -7 4 -8 -3 -4 -20 4 -18 2 -30 -7 -36 -10 -6
-11 -9 -1 -9 6 0 12 -9 12 -20 0 -13 -7 -20 -19 -20 -15 0 -19 8 -19 40 -1 24
4 40 11 41 7 0 1 5 -13 10 -25 10 -25 11 14 24 21 7 46 11 55 7 14 -5 14 -3
-1 12 -10 9 -18 29 -18 42 0 14 -4 23 -9 20 -5 -3 -7 -16 -4 -29 l6 -22 -22
22 c-11 12 -21 31 -21 43 0 11 -4 20 -10 20 -5 0 -10 5 -10 10 0 13 37 13 44
1z m-1296 -16 c7 -13 14 -14 35 -6 23 9 27 8 27 -9 0 -22 -4 -25 -49 -35 -31
-7 -33 -5 -28 14 3 11 1 21 -4 21 -5 0 -9 -9 -9 -21 0 -28 -24 -19 -28 10 -2
13 1 21 6 17 5 -3 12 1 16 9 7 19 23 19 34 0z m930 -17 c5 -7 10 -32 10 -55 1
-32 -3 -42 -19 -46 -14 -4 -19 0 -19 14 0 10 6 19 13 20 10 0 10 2 0 6 -7 2
-13 16 -13 29 0 13 -4 24 -9 24 -5 0 -7 -9 -4 -20 3 -11 0 -20 -6 -20 -15 0
-14 33 1 48 15 15 33 15 46 0z m506 -19 c-5 -8 10 -13 20 -6 2 1 13 -6 24 -16
17 -15 24 -17 39 -7 13 8 13 10 2 7 -9 -3 -22 -1 -30 3 -11 7 -10 10 4 16 28
10 45 -13 45 -61 0 -40 -2 -45 -30 -54 -47 -17 -50 -14 -46 33 3 43 2 44 -23
39 -25 -5 -27 -3 -27 30 0 26 4 34 14 30 8 -3 11 -9 8 -14z m-366 -30 c-20
-13 -28 -11 -28 10 0 23 33 33 38 12 2 -7 -2 -17 -10 -22z m-868 6 c0 -17 -36
-39 -50 -30 -6 4 -7 -6 -4 -23 4 -22 2 -31 -11 -36 -14 -5 -17 -2 -12 20 4 23
2 25 -17 19 -11 -4 -29 -7 -38 -8 -13 -1 -15 -8 -11 -28 4 -23 1 -28 -28 -38
-44 -15 -47 -14 -51 11 -2 12 -9 23 -16 24 -7 1 -8 0 -2 -3 14 -7 13 -36 -2
-51 -9 -9 -9 -12 0 -12 7 0 12 -9 12 -20 0 -14 -7 -20 -21 -20 -16 0 -20 5
-16 19 3 12 -1 22 -11 26 -14 5 -14 8 -3 15 8 4 19 7 25 6 6 -2 8 -1 4 1 -15
9 -8 42 11 53 24 12 60 2 39 -11 -10 -7 -10 -9 2 -9 8 0 21 4 28 9 10 6 8 10
-10 16 l-23 8 25 4 c14 3 31 9 37 15 7 6 20 8 28 4 8 -3 15 -1 15 4 0 6 9 10
19 10 11 0 23 5 27 11 3 6 14 9 24 6 13 -3 17 0 13 9 -3 8 0 14 6 14 6 0 11
-7 11 -15z m50 -34 c0 -10 -9 -21 -20 -24 -15 -4 -20 0 -20 13 0 17 12 27 33
29 4 1 7 -7 7 -18z m640 -2 c0 -11 -4 -17 -10 -14 -5 3 -10 13 -10 21 0 8 5
14 10 14 6 0 10 -9 10 -21z m-694 -24 c-7 -19 -36 -19 -36 0 0 17 33 38 38 24
2 -5 1 -16 -2 -24z m1252 -15 c1 -23 -4 -40 -10 -40 -15 0 -3 -11 15 -14 8 -1
22 -9 31 -19 10 -9 23 -17 31 -17 18 0 25 -23 25 -88 -1 -50 -2 -55 -14 -39
-11 13 -19 15 -37 8 -18 -7 -19 -10 -6 -10 9 -1 17 -8 17 -16 0 -9 -8 -19 -17
-23 -14 -5 -12 -8 12 -12 17 -4 29 -12 27 -19 -1 -7 2 -9 9 -6 7 5 10 -1 7
-16 -2 -16 -12 -25 -37 -31 -18 -5 -31 -12 -28 -15 3 -3 20 -1 36 5 28 10 31
9 31 -9 0 -10 -5 -19 -12 -19 -27 0 10 -16 45 -19 5 -1 5 -5 2 -11 -3 -5 -1
-10 4 -10 18 0 13 -28 -6 -39 -17 -10 -17 -10 0 -12 9 -1 22 -3 27 -4 6 -1 16
-3 23 -4 8 -1 7 -4 -3 -11 -10 -7 -11 -10 -2 -10 15 0 15 -108 -1 -127 -6 -9
-6 -13 2 -13 7 0 11 -19 10 -55 -2 -58 -14 -72 -25 -29 -4 17 -2 29 7 35 9 6
10 9 2 9 -6 0 -13 10 -15 22 -2 12 -10 23 -18 26 -12 4 -13 2 -2 -9 6 -7 12
-21 12 -31 0 -10 -6 -18 -12 -18 -9 0 -9 -3 1 -9 8 -5 11 -16 8 -25 -7 -18
-37 -22 -37 -5 0 6 7 8 17 5 16 -6 16 -6 0 12 -20 22 -22 48 -4 55 8 4 7 6 -3
6 -8 0 -22 -4 -30 -9 -10 -6 -11 -10 -2 -10 7 0 12 -15 12 -39 0 -36 -3 -40
-36 -51 -19 -7 -38 -9 -41 -6 -12 12 8 35 37 41 17 4 29 9 26 12 -3 3 -19 1
-35 -5 -28 -10 -31 -9 -31 9 0 10 6 19 13 19 9 0 9 2 0 8 -16 10 -15 124 1
134 8 6 7 8 -2 8 -16 0 -14 122 2 132 8 6 7 8 -1 8 -8 0 -13 15 -13 39 0 34 4
41 28 50 l27 11 -27 -5 -28 -5 0 65 c0 45 4 65 13 66 10 0 10 2 0 6 -8 3 -13
23 -13 49 0 42 -1 44 -24 38 -22 -5 -24 -3 -24 35 -1 25 4 41 11 41 8 0 7 3
-2 9 -17 11 -7 41 13 41 9 0 14 -12 14 -40z m-1338 -5 c0 -16 -27 -32 -37 -22
-3 4 -3 13 0 22 8 20 37 20 37 0z m1135 9 c13 -5 14 -8 3 -15 -10 -7 -10 -9 0
-9 7 0 12 -14 12 -36 0 -21 -4 -33 -10 -29 -6 4 -8 11 -5 16 4 5 1 9 -4 9 -6
0 -11 9 -11 19 0 10 -7 21 -15 25 -12 4 -13 2 -3 -14 13 -21 6 -36 -11 -25
-17 10 -13 43 7 54 21 13 17 12 37 5z m-1237 -105 c-20 -13 -28 -11 -28 10 0
23 33 33 38 12 2 -7 -2 -17 -10 -22z m-100 19 c16 -21 13 -95 -5 -102 -12 -5
-14 -1 -11 18 4 19 0 26 -19 30 -25 7 -31 34 -11 54 15 15 33 15 46 0z m1539
-35 c-3 -3 -11 -2 -17 2 -9 6 -9 10 1 16 14 8 27 -7 16 -18z m166 -36 c20 -7
24 -57 5 -58 -10 0 -10 -2 0 -6 6 -2 12 -20 12 -39 0 -21 -4 -33 -10 -29 -6 4
-8 11 -5 16 4 5 1 9 -4 9 -6 0 -11 18 -11 40 0 24 5 40 12 40 6 0 9 3 5 6 -3
4 -20 2 -36 -4 -28 -10 -31 -9 -31 9 0 10 6 19 13 20 10 0 10 2 0 6 -7 2 -13
12 -13 21 0 13 4 12 23 -5 12 -11 30 -23 40 -26z m-165 -23 c0 -38 -2 -43 -14
-33 -17 14 -18 39 -2 39 9 0 9 3 0 12 -17 17 -15 39 2 32 9 -4 14 -21 14 -50z
m-1584 33 c22 -16 18 -50 -7 -55 -11 -2 -17 3 -17 17 0 11 -5 23 -10 26 -7 4
-8 -3 -4 -20 6 -25 -6 -44 -28 -45 -13 0 -9 38 5 43 8 4 7 6 -3 6 -8 0 -22 -4
-30 -9 -10 -6 -11 -10 -2 -10 6 0 12 -9 12 -20 0 -27 -28 -26 -32 2 -2 12 -9
23 -16 24 -7 1 -8 0 -2 -3 15 -7 13 -45 -2 -41 -22 8 -21 46 2 58 11 6 25 8
30 5 6 -3 10 -1 10 4 0 6 11 11 24 11 14 0 28 5 31 10 8 13 18 13 39 -3z
m1529 -54 c9 -34 6 -88 -6 -95 -9 -6 -9 -8 0 -8 9 0 12 -19 12 -60 -1 -57 -19
-77 -20 -22 0 15 -2 58 -4 97 -3 47 0 72 8 77 7 5 3 7 -10 5 -24 -3 -44 -17
-26 -17 6 0 11 -16 11 -35 0 -19 -4 -35 -9 -35 -5 0 -4 -9 3 -20 13 -21 6 -36
-12 -25 -6 4 -9 22 -7 41 3 22 1 32 -6 27 -6 -4 -8 4 -5 21 3 14 4 26 2 26 -1
0 -10 3 -20 7 -11 4 -15 3 -11 -4 4 -6 4 -13 0 -16 -5 -2 -3 -2 4 -1 7 2 11
-13 11 -41 0 -34 -4 -44 -19 -48 -14 -4 -19 0 -19 14 0 10 6 19 13 20 10 0 10
2 0 6 -7 2 -13 13 -13 23 0 10 -3 21 -7 23 -5 3 -7 -25 -6 -61 1 -36 -3 -72
-9 -79 -7 -9 -7 -13 1 -13 6 0 11 -9 11 -20 0 -11 -7 -20 -15 -20 -8 0 -15 9
-15 20 0 11 -4 20 -9 20 -5 0 -7 -9 -4 -21 4 -12 0 -25 -8 -30 -10 -6 -10 -9
-1 -9 19 0 14 -40 -5 -41 -17 -1 -17 -2 0 -6 22 -6 18 -37 -6 -41 -15 -3 -17
5 -16 62 1 42 5 66 13 66 8 0 8 2 0 8 -6 4 -11 21 -12 39 0 24 3 30 14 26 7
-3 11 -9 8 -14 -3 -5 -2 -9 3 -10 4 0 15 -2 23 -4 12 -2 15 11 15 69 0 68 1
71 29 85 16 7 40 14 52 14 13 0 24 3 24 8 0 17 39 9 43 -8z m275 5 c15 -15 16
-48 0 -48 -15 0 -4 -11 15 -14 38 -5 64 -65 30 -67 -17 -1 -17 -2 0 -6 23 -6
18 -37 -7 -41 -16 -3 -18 2 -15 42 2 25 1 46 -3 46 -8 0 -12 -38 -8 -74 2 -17
-15 -35 -32 -36 -14 0 -9 40 5 41 10 0 10 2 0 6 -19 7 -16 30 5 43 14 10 14
11 1 6 -14 -4 -17 5 -18 55 -1 59 5 69 27 47z m-80 -33 c0 -23 -4 -34 -11 -32
-7 3 -11 10 -9 16 1 7 -2 10 -8 6 -11 -7 -14 28 -3 38 17 18 31 5 31 -28z
m-430 3 c14 -17 13 -91 -1 -100 -9 -6 -9 -8 1 -8 7 0 12 -15 12 -39 0 -30 -5
-41 -19 -46 -27 -8 -51 4 -51 28 0 15 3 18 11 10 6 -6 20 -8 32 -5 20 6 19 7
-8 12 -16 3 -29 11 -27 18 1 7 -3 12 -9 12 -7 0 -10 17 -7 45 2 31 -1 45 -9
45 -15 0 -18 19 -3 21 6 1 14 2 19 3 5 0 13 4 17 9 11 11 30 9 42 -5z m292
-25 c0 -24 -25 -9 -28 17 -3 21 -2 22 12 11 9 -7 16 -20 16 -28z m-1710 -26
c0 -8 -9 -17 -21 -20 -18 -5 -20 -2 -17 18 3 16 0 26 -11 30 -13 5 -13 7 -1
15 16 10 50 -19 50 -43z m-62 21 c13 -16 14 -98 1 -99 -5 -1 -13 -2 -18 -3
-21 -3 -21 -15 0 -26 l22 -13 -29 -12 c-16 -8 -23 -14 -16 -14 7 -1 22 3 32 9
17 9 18 6 18 -35 0 -25 -4 -46 -9 -46 -5 -1 -15 -2 -21 -3 -8 -1 -12 -12 -10
-27 2 -20 -2 -28 -17 -32 -16 -4 -21 0 -21 14 0 10 6 19 13 20 10 0 10 2 0 6
-7 2 -13 20 -13 39 0 26 3 32 16 27 13 -5 13 -7 2 -14 -10 -7 -9 -9 4 -9 25 0
31 18 8 25 -25 8 -38 54 -19 66 9 6 10 9 2 9 -6 0 -13 10 -15 22 -2 12 -9 23
-16 24 -7 1 -8 0 -2 -3 14 -7 13 -36 -2 -51 -9 -9 -9 -12 0 -12 16 0 14 -122
-2 -132 -8 -6 -7 -8 2 -8 7 0 12 -15 12 -40 0 -22 -2 -40 -4 -40 -2 0 -11 -3
-20 -6 -12 -4 -16 0 -16 15 0 13 7 21 18 22 15 1 15 2 1 6 -20 5 -24 74 -6 85
9 6 9 8 0 8 -20 0 -15 40 5 41 15 1 15 2 -1 6 -13 3 -17 11 -14 23 3 10 0 21
-7 23 -8 3 -11 -11 -9 -46 1 -31 -3 -55 -10 -59 -9 -6 -9 -8 1 -8 7 0 12 -15
12 -39 0 -31 -4 -41 -20 -46 -34 -11 -48 10 -48 75 0 61 5 69 26 48 7 -7 12
-8 12 -4 0 5 -8 15 -17 22 -16 12 -16 13 9 14 22 0 25 4 21 21 -6 23 19 50 40
45 7 -2 9 -1 5 1 -15 9 -8 42 11 53 24 12 60 2 39 -11 -9 -6 -7 -9 9 -9 32 0
37 17 8 24 -27 7 -33 34 -13 54 15 15 33 15 46 0z m100 -5 c-5 -25 -28 -28
-28 -4 0 12 6 21 16 21 9 0 14 -7 12 -17z m1302 -20 c0 -24 -25 -9 -28 17 -3
21 -2 22 12 11 9 -7 16 -20 16 -28z m523 -12 c23 -9 27 -16 25 -51 -1 -22 -5
-40 -9 -40 -12 0 -22 46 -14 59 8 14 3 14 -31 1 -25 -10 -26 -9 -22 15 4 17 1
25 -8 25 -17 0 -18 17 -1 23 6 3 17 -1 23 -9 6 -7 23 -18 37 -23z m-165 17
c18 -18 14 -45 -8 -51 -17 -4 -19 0 -18 29 1 36 7 41 26 22z m-1612 -44 c4
-17 2 -29 -7 -35 -10 -6 -11 -9 -1 -9 6 0 12 -9 12 -20 0 -14 -7 -20 -21 -20
-13 0 -20 6 -18 18 1 9 0 26 -1 37 -1 19 -2 19 -12 -2 -6 -13 -19 -23 -29 -23
-10 0 -21 -4 -24 -10 -3 -5 -1 -10 4 -10 17 0 13 -28 -6 -40 -17 -11 -17 -11
0 -6 15 5 18 1 15 -16 -2 -13 -11 -24 -22 -26 -16 -3 -18 2 -15 42 3 34 0 47
-11 51 -12 5 -12 7 -1 15 8 4 20 6 28 3 7 -3 13 0 13 6 0 6 9 11 19 11 14 0
18 5 14 21 -5 18 -2 19 23 14 26 -5 26 -4 7 4 -30 13 -29 21 2 21 18 0 26 -7
31 -26z m1242 14 c16 -16 15 -48 0 -48 -9 0 -9 -3 1 -9 17 -11 7 -41 -13 -41
-17 0 -20 71 -3 82 8 5 6 8 -5 8 -11 0 -18 -8 -18 -20 0 -11 -4 -20 -10 -20
-11 0 -13 20 -4 44 7 19 35 21 52 4z m-188 -8 c11 -7 12 -10 2 -10 -11 0 -11
-3 1 -14 8 -9 12 -26 9 -44 -5 -35 -32 -53 -32 -22 0 11 6 20 13 20 8 0 9 2 1
8 -7 4 -13 16 -15 26 -2 11 -11 21 -19 24 -12 4 -13 2 -2 -9 18 -20 15 -46 -8
-52 -15 -4 -20 0 -20 13 0 10 6 21 13 23 6 3 2 6 -10 6 -16 1 -20 -3 -16 -19
3 -11 0 -20 -6 -20 -12 0 -15 30 -3 45 6 8 53 30 72 34 3 0 12 -4 20 -9z m430
-35 c0 -16 -27 -32 -37 -22 -3 4 -3 13 0 22 8 20 37 20 37 0z m138 -25 c1 -24
-4 -40 -11 -40 -9 0 -9 -2 -1 -8 14 -9 16 -72 3 -72 -15 0 -23 31 -10 39 9 6
8 11 -4 21 -18 15 -20 50 -2 50 8 0 8 3 -2 9 -17 11 -7 41 13 41 9 0 14 -12
14 -40z m142 25 c0 -16 -27 -32 -37 -22 -3 4 -3 13 0 22 8 20 37 20 37 0z
m-562 -57 c0 -24 -5 -49 -10 -55 -7 -9 -7 -13 0 -13 16 0 13 -78 -4 -84 -11
-4 -15 0 -12 17 3 25 -7 29 -39 14 -15 -6 -23 -19 -23 -34 0 -12 -2 -23 -4
-23 -2 0 -11 -3 -20 -6 -12 -4 -16 0 -16 15 0 13 7 21 18 22 14 1 15 2 1 6
-24 6 -25 132 -1 134 15 1 15 2 0 6 -18 4 -25 23 -10 23 26 0 45 -59 20 -61
-10 0 -10 -2 0 -6 15 -6 16 -43 0 -43 -17 0 -4 -10 20 -15 15 -3 19 1 15 16
-7 24 15 52 37 46 13 -3 15 4 13 40 -1 23 2 43 7 43 5 0 9 -19 8 -42z m-1252
-3 c-3 -8 -10 -15 -16 -15 -14 0 -12 37 3 43 15 5 21 -8 13 -28z m1522 -6
c-20 -13 -28 -11 -28 10 0 23 33 33 38 12 2 -7 -2 -17 -10 -22z m-694 0 c-3
-5 0 -9 5 -9 18 0 13 -28 -6 -39 -16 -9 -16 -10 4 -11 12 0 29 -3 38 -6 13 -5
14 -8 3 -15 -10 -7 -10 -9 0 -9 13 0 18 -79 5 -81 -5 0 -16 -2 -26 -4 -9 -2
-24 3 -32 12 -18 18 -20 53 -2 53 9 0 8 3 -2 9 -9 6 -12 22 -9 50 2 22 3 41 2
41 -1 0 -10 3 -20 7 -11 4 -15 3 -11 -4 4 -6 4 -13 0 -16 -5 -2 -3 -2 4 -1 15
4 15 -78 -1 -88 -8 -6 -7 -8 2 -8 6 0 12 -9 12 -20 0 -13 -7 -20 -19 -20 -15
0 -19 7 -19 38 0 20 5 40 11 44 9 6 9 8 0 8 -7 0 -13 9 -13 19 0 11 -3 22 -7
24 -5 3 -7 -39 -6 -93 1 -75 -2 -100 -12 -104 -17 -6 -19 75 -1 87 7 5 4 7 -8
5 -10 -2 -21 3 -23 10 -3 6 2 12 11 12 16 0 20 19 17 66 -2 24 12 37 54 51 32
11 58 6 49 -8z m194 -26 c-1 -27 -6 -51 -12 -55 -8 -5 -7 -8 2 -8 7 0 12 -14
12 -39 0 -34 -4 -40 -32 -53 -18 -8 -27 -13 -20 -11 6 1 12 -6 12 -17 0 -11
-6 -20 -12 -21 -10 0 -10 -2 0 -6 19 -7 14 -40 -7 -46 -18 -4 -20 0 -18 61 l2
66 35 10 35 9 -30 6 c-22 5 -31 13 -33 31 -4 21 -2 22 12 11 9 -8 19 -11 22
-8 3 3 -4 10 -15 17 -29 15 -28 43 2 35 22 -7 22 -7 2 9 -20 15 -19 15 7 16
21 0 25 4 21 20 -3 11 -1 20 5 20 6 0 10 -21 10 -47z m52 32 c0 -7 -8 -19 -17
-25 -16 -10 -16 -11 -1 -6 14 4 17 -2 16 -35 0 -44 -1 -45 -22 -23 -16 15 -22
84 -9 97 12 12 33 7 33 -8z m218 -36 c-20 -13 -28 -11 -28 10 0 23 33 33 38
12 2 -7 -2 -17 -10 -22z m-178 1 c0 -11 -6 -20 -12 -20 -10 0 -10 -2 -1 -8 15
-9 16 -112 2 -112 -5 0 -9 12 -9 28 0 15 -3 44 -6 64 -3 21 -4 45 0 53 8 22
26 18 26 -5z m280 -17 c0 -18 -5 -33 -11 -33 -6 0 -8 7 -5 16 3 8 2 12 -4 9
-13 -8 -50 13 -50 28 0 8 13 13 35 13 33 0 35 -2 35 -33z m88 -22 c1 -24 -4
-41 -13 -45 -10 -3 -13 6 -13 40 0 29 4 44 13 44 8 0 13 -14 13 -39z m-930
-23 c16 -16 15 -48 0 -49 -10 0 -10 -2 0 -6 19 -7 15 -43 -5 -44 -16 -1 -16
-2 -2 -6 13 -3 17 -17 17 -58 0 -53 -12 -72 -25 -39 -3 9 0 19 6 24 10 5 9 11
-3 23 -19 18 -20 128 -2 139 7 5 6 8 -4 8 -8 0 -22 -5 -30 -10 -10 -6 -11 -10
-3 -10 20 0 15 -127 -4 -134 -12 -5 -14 -1 -11 18 4 19 0 26 -19 30 -14 4 -23
14 -23 27 0 16 3 18 18 10 10 -5 24 -6 32 -1 10 6 5 9 -16 12 -21 2 -30 9 -32
25 -3 23 30 49 48 38 6 -3 10 -1 10 4 0 15 33 14 48 -1z m1122 -19 c0 -12 -5
-16 -15 -13 -8 4 -15 15 -15 25 0 12 5 16 15 13 8 -4 15 -15 15 -25z m-280 0
c0 -11 -4 -17 -10 -14 -5 3 -10 13 -10 21 0 8 5 14 10 14 6 0 10 -9 10 -21z
m-443 -34 c-10 -7 -17 -20 -17 -29 0 -25 -24 -14 -28 12 -2 16 4 25 20 31 29
11 46 2 25 -14z m263 10 c0 -7 -8 -19 -17 -25 -17 -11 -17 -11 0 -6 12 4 17 0
17 -14 0 -11 -2 -20 -4 -20 -2 0 -11 -3 -20 -6 -13 -5 -16 1 -16 33 0 22 3 43
7 46 12 12 33 7 33 -8z m-513 -73 c1 -50 -2 -72 -10 -72 -8 0 -7 -4 2 -9 17
-11 7 -41 -13 -41 -17 0 -20 71 -3 82 9 6 9 8 0 8 -7 0 -13 9 -13 19 0 11 -3
22 -8 25 -4 2 -6 -15 -5 -40 1 -24 -1 -44 -6 -44 -5 0 -9 20 -9 44 0 49 17 72
45 62 15 -6 16 -5 6 5 -7 7 -13 19 -13 27 0 7 6 12 13 10 8 -3 13 -29 14 -76z
m970 0 c1 -50 -2 -72 -10 -72 -8 0 -7 -4 2 -9 17 -11 7 -41 -13 -41 -17 0 -20
71 -3 82 9 6 9 8 0 8 -7 0 -13 9 -13 19 0 11 -3 22 -8 25 -4 2 -6 -15 -5 -40
1 -24 -1 -44 -6 -44 -5 0 -9 20 -9 44 0 49 17 72 45 62 15 -6 16 -5 6 5 -7 7
-13 19 -13 27 0 7 6 12 13 10 8 -3 13 -29 14 -76z m221 56 c14 -18 14 -98 0
-98 -18 0 -3 -10 22 -15 26 -5 39 -14 22 -16 -26 -3 -31 -4 -38 -11 -4 -5 -13
-8 -20 -8 -16 0 -16 72 -1 82 9 6 9 8 0 8 -8 0 -13 14 -13 35 0 36 10 44 28
23z m-1278 -47 c0 -6 -8 -15 -17 -20 -17 -10 -17 -10 1 -11 13 0 17 -5 13 -20
-3 -13 3 -24 19 -35 32 -21 31 -51 -3 -64 l-28 -11 28 5 c22 4 27 2 27 -14 0
-11 -9 -21 -22 -24 -24 -7 -51 10 -42 24 3 5 1 9 -4 9 -14 0 -12 74 1 82 9 6
9 8 -1 8 -8 0 -12 18 -11 60 2 60 2 61 20 41 11 -11 19 -25 19 -30z m-346 20
c4 -5 0 -12 -6 -14 -8 -4 -7 -6 3 -6 12 -1 17 -11 17 -41 1 -23 -4 -40 -10
-40 -27 0 10 -16 45 -19 5 -1 5 -5 2 -11 -3 -5 -1 -10 4 -10 6 0 11 -13 11
-30 0 -19 5 -29 13 -27 6 1 11 -4 10 -10 -2 -7 1 -13 6 -13 15 0 8 -83 -7 -88
-9 -3 -13 4 -12 19 5 52 0 69 -17 69 -14 0 -15 -2 -4 -9 7 -5 12 -14 9 -21 -3
-9 -9 -8 -22 5 -13 13 -17 30 -14 62 2 23 0 43 -4 43 -5 0 -8 -11 -8 -23 0
-19 -9 -28 -39 -39 l-40 -16 1 42 c0 22 5 44 12 48 8 6 7 8 -1 8 -26 0 -12 30
20 44 17 8 26 15 19 15 -7 1 -23 -4 -34 -10 -19 -10 -20 -9 -16 15 4 18 1 26
-8 26 -16 0 -19 19 -4 21 6 1 14 2 19 3 5 0 13 4 17 9 10 10 32 9 38 -2z
m-538 -12 c4 -8 9 -8 17 0 17 17 27 13 27 -9 0 -11 -6 -20 -12 -21 -10 0 -10
-2 0 -6 17 -7 15 -43 -3 -43 -9 0 -15 9 -15 24 0 15 -7 26 -20 29 -11 3 -20
12 -20 21 0 18 16 21 26 5z m1109 1 c5 -8 12 -7 23 2 12 10 16 10 19 0 3 -6 9
-10 14 -6 12 7 39 -20 39 -40 0 -9 -6 -16 -12 -16 -9 0 -9 -3 1 -9 17 -11 7
-41 -13 -41 -12 0 -15 10 -13 45 3 48 1 50 -23 35 -10 -6 -11 -10 -3 -10 9 0
12 -19 12 -60 -1 -35 -5 -57 -11 -54 -5 3 -8 16 -7 27 3 39 -1 47 -21 47 -21
0 -35 20 -28 41 3 8 9 6 21 -5 14 -14 17 -15 17 -3 0 8 -9 17 -20 20 -11 3
-20 12 -20 21 0 18 15 21 25 6z m325 -6 c0 -8 -4 -12 -10 -9 -5 3 -10 10 -10
16 0 5 5 9 10 9 6 0 10 -7 10 -16z m-970 -41 c0 -24 -25 -9 -28 17 -3 21 -2
22 12 11 9 -7 16 -20 16 -28z m255 31 c13 -5 14 -8 3 -15 -10 -7 -9 -9 4 -9
12 0 16 -9 16 -37 0 -21 -5 -41 -11 -45 -9 -6 -9 -8 1 -8 19 0 14 -28 -7 -40
-18 -9 -20 -7 -19 32 0 24 5 46 12 50 8 6 7 8 -1 8 -7 0 -13 9 -13 19 0 11 -3
22 -8 25 -4 2 -6 -17 -5 -42 2 -35 -1 -50 -14 -61 -17 -13 -17 -13 0 -8 12 5
17 1 17 -13 0 -11 -2 -20 -4 -20 -2 0 -11 -3 -20 -6 -12 -5 -16 0 -16 20 0 14
-4 26 -9 26 -5 0 -7 -9 -4 -20 3 -11 0 -20 -6 -20 -16 0 -13 35 4 50 8 7 21
10 28 7 9 -3 12 7 10 41 -2 25 2 51 8 59 13 15 12 15 34 7z m-727 -26 c19 -19
14 -45 -9 -51 -18 -5 -20 -2 -16 19 3 15 0 24 -8 24 -8 0 -11 -8 -8 -21 7 -26
-20 -51 -45 -42 -13 5 -14 3 -6 -6 9 -10 17 -10 33 -2 18 10 21 9 21 -8 0 -10
-6 -21 -14 -24 -23 -9 -56 4 -56 23 0 23 26 44 45 36 10 -3 13 -2 10 5 -4 5
-4 21 -1 35 7 26 34 32 54 12z m472 -47 c0 -9 -5 -22 -12 -29 -9 -9 -9 -12 0
-12 19 0 15 -77 -4 -84 -23 -9 -24 -8 -24 14 0 12 7 20 18 21 15 1 15 2 -1 6
-13 3 -17 11 -14 23 3 10 0 21 -7 23 -8 3 -10 -16 -9 -64 1 -38 -2 -69 -7 -69
-4 0 -8 32 -8 70 0 71 11 92 46 84 7 -1 8 0 2 3 -17 8 -12 43 5 37 8 -4 15
-14 15 -23z m-460 -26 c0 -8 -9 -19 -20 -25 -17 -9 -20 -8 -20 8 0 10 3 22 7
25 12 12 33 7 33 -8z m304 -6 c-3 -5 0 -9 5 -9 7 0 10 -26 10 -65 -1 -41 -5
-65 -13 -65 -8 0 -7 -3 1 -8 8 -5 12 -30 12 -65 -1 -31 -5 -54 -10 -51 -5 3
-9 21 -9 40 0 19 -4 34 -9 34 -13 0 -10 73 3 82 7 5 7 8 -1 8 -19 0 -16 27 5
39 16 10 16 10 -2 11 -13 0 -17 5 -13 19 3 11 -1 22 -8 25 -10 4 -11 -2 -5
-25 5 -16 5 -29 0 -29 -4 0 -6 -9 -3 -21 4 -12 0 -25 -8 -30 -10 -6 -10 -9 -1
-9 7 0 12 -14 12 -37 -1 -36 -2 -37 -15 -19 -18 23 -18 137 -1 148 6 4 2 6
-10 6 -16 -2 -19 -7 -16 -25 3 -18 1 -22 -12 -17 -19 7 -21 39 -3 51 39 25
105 34 91 12z m1584 -44 c0 -36 -4 -65 -8 -65 -5 0 -8 29 -8 65 0 36 4 65 8
65 5 0 8 -29 8 -65z m332 50 c0 -16 -27 -32 -37 -22 -3 4 -3 13 0 22 8 20 37
20 37 0z m-1032 -36 c-20 -13 -28 -11 -28 10 0 23 33 33 38 12 2 -7 -2 -17
-10 -22z m970 0 c-20 -13 -28 -11 -28 10 0 23 33 33 38 12 2 -7 -2 -17 -10
-22z m-1330 -3 c3 -12 -1 -17 -10 -14 -7 3 -15 13 -16 22 -3 12 1 17 10 14 7
-3 15 -13 16 -22z m1100 -27 c-20 -13 -28 -11 -28 10 0 23 33 33 38 12 2 -7
-2 -17 -10 -22z m140 0 c-20 -13 -28 -11 -28 10 0 23 33 33 38 12 2 -7 -2 -17
-10 -22z m140 0 c-20 -13 -28 -11 -28 10 0 23 33 33 38 12 2 -7 -2 -17 -10
-22z m-2308 11 c0 -7 6 -7 19 0 27 14 31 13 31 -11 0 -17 -5 -20 -32 -17 -22
2 -34 9 -36 21 -2 9 1 17 7 17 6 0 11 -5 11 -10z m2130 -25 c0 -19 -4 -35 -9
-35 -16 0 -22 18 -9 24 14 6 -28 -4 -49 -11 -8 -3 -13 3 -13 14 0 16 30 34 73
42 4 0 7 -15 7 -34z m90 14 c0 -11 -4 -17 -10 -14 -5 3 -10 13 -10 21 0 8 5
14 10 14 6 0 10 -9 10 -21z m50 2 c0 -10 -9 -21 -20 -24 -15 -4 -20 0 -20 13
0 17 12 27 33 29 4 1 7 -7 7 -18z m-2092 -13 c14 -17 13 -91 -1 -100 -9 -6 -9
-8 1 -8 16 0 14 -122 -2 -132 -8 -6 -7 -8 2 -8 7 0 12 -15 12 -40 0 -22 -2
-40 -4 -40 -2 0 -11 -3 -20 -6 -12 -4 -16 0 -16 15 0 13 7 21 18 22 15 1 15 2
1 6 -20 5 -24 74 -6 85 9 6 9 8 0 8 -20 0 -15 40 5 41 15 1 15 2 1 6 -20 5
-24 74 -6 85 9 6 9 8 0 8 -19 0 -16 28 4 39 14 7 12 9 -9 8 -23 -2 -26 -5 -21
-26 3 -14 0 -26 -8 -32 -10 -6 -11 -9 -1 -9 16 0 14 -122 -2 -132 -8 -6 -7 -8
1 -8 9 0 12 -20 12 -65 -1 -65 -1 -65 -30 -65 -18 0 -32 6 -36 15 -8 22 4 30
22 15 8 -7 15 -10 15 -6 0 3 0 8 0 11 0 3 -2 4 -3 3 -2 -2 -11 3 -19 10 -19
15 -23 96 -5 85 7 -3 5 2 -5 13 -19 22 -22 95 -5 106 9 6 9 8 0 8 -7 0 -13 9
-13 20 0 10 -8 23 -17 29 -14 7 -9 11 28 21 24 6 51 16 59 20 22 13 36 12 48
-2z m280 0 c14 -18 14 -98 -1 -98 -15 0 14 -20 30 -20 6 0 9 8 6 20 -3 11 -1
20 5 20 14 0 12 -93 -2 -102 -8 -5 -7 -8 2 -8 15 0 16 -26 1 -35 -15 -10 -61
4 -54 15 3 6 1 10 -4 10 -15 0 -12 123 3 132 8 6 7 8 -1 8 -8 0 -13 14 -13 35
0 36 10 44 28 23z m1375 -7 c-2 -6 1 -11 6 -11 4 0 9 -29 9 -65 0 -47 -3 -65
-13 -65 -9 0 -13 18 -13 61 0 58 -13 92 -29 74 -5 -4 -2 -10 5 -12 6 -3 12
-13 12 -24 0 -10 -6 -19 -12 -19 -9 0 -10 -3 -2 -8 15 -10 16 -75 1 -84 -20
-13 -27 -9 -27 12 0 11 6 20 13 20 9 0 9 2 0 8 -7 4 -11 25 -10 50 2 30 -2 43
-13 48 -10 4 -5 10 20 19 39 14 56 13 53 -4z m-1505 -15 c3 -12 -1 -17 -10
-14 -7 3 -15 13 -16 22 -3 12 1 17 10 14 7 -3 15 -13 16 -22z m322 8 c0 -8 -4
-12 -10 -9 -5 3 -10 10 -10 16 0 5 5 9 10 9 6 0 10 -7 10 -16z m140 -4 c0 -11
-6 -20 -12 -20 -9 0 -9 -3 1 -9 17 -11 7 -41 -13 -41 -17 0 -20 71 -3 82 20
13 27 9 27 -12z m1250 0 c0 -12 -7 -20 -17 -21 -16 -1 -16 -2 -1 -6 31 -8 18
-92 -14 -93 -14 0 -9 40 5 41 10 0 10 2 0 6 -7 2 -13 22 -13 43 0 34 8 47 33
49 4 1 7 -8 7 -19z m140 0 c0 -12 -7 -20 -17 -21 -16 -1 -16 -2 -1 -6 31 -8
18 -92 -14 -93 -14 0 -9 40 5 41 10 0 10 2 0 6 -7 2 -13 22 -13 43 0 34 8 47
33 49 4 1 7 -8 7 -19z m-2181 -12 c12 -19 11 -23 -5 -35 -15 -11 -16 -13 -2
-13 9 0 23 -3 31 -6 12 -4 14 0 10 15 -3 12 -1 21 6 21 15 0 14 -33 -1 -48 -9
-9 -9 -12 0 -12 17 0 14 -127 -3 -134 -16 -6 -55 4 -55 14 0 4 12 11 28 15 15
4 21 10 15 12 -19 7 -16 30 5 42 16 10 16 10 -2 11 -13 0 -17 5 -13 20 3 11 1
20 -5 20 -6 0 -8 -11 -6 -25 3 -14 2 -25 -2 -25 -4 0 -5 -11 -3 -24 3 -15 -1
-25 -10 -29 -12 -5 -15 3 -15 39 0 27 4 44 11 44 8 0 7 3 -2 9 -9 6 -12 22 -9
50 2 28 0 41 -9 41 -6 0 -15 5 -18 10 -3 6 4 10 17 10 13 0 29 -10 37 -22z
m1744 -6 c-2 -7 1 -12 6 -12 5 0 9 -17 9 -39 1 -35 -3 -40 -36 -55 -32 -13
-11 -12 26 1 7 3 12 -3 12 -15 0 -13 -9 -22 -24 -26 -13 -3 -32 -9 -41 -12
-14 -6 -16 2 -13 65 2 52 0 71 -9 71 -7 0 -13 5 -13 10 0 6 9 10 19 10 11 0
23 5 26 11 9 14 41 6 38 -9z m-1785 -16 c3 -12 -1 -17 -10 -14 -7 3 -15 13
-16 22 -3 12 1 17 10 14 7 -3 15 -13 16 -22z m602 4 c0 -11 -6 -20 -12 -21
-10 0 -10 -2 0 -6 11 -4 18 -83 8 -83 -2 0 -11 -3 -20 -6 -12 -4 -16 0 -16 15
0 12 6 21 13 21 8 0 9 3 1 8 -15 10 -16 75 -1 84 20 13 27 9 27 -12z m-242 -2
c16 -16 15 -48 0 -48 -10 0 -10 -2 -1 -8 16 -10 15 -124 -1 -134 -8 -6 -7 -8
2 -8 20 0 14 -37 -7 -43 -17 -4 -19 1 -19 39 0 27 4 44 11 44 8 0 8 3 -1 9 -9
5 -12 28 -10 74 2 41 -1 67 -7 67 -6 0 -9 -29 -8 -72 1 -46 -3 -76 -10 -80 -9
-6 -9 -8 0 -8 17 0 16 -127 -1 -133 -19 -7 -56 11 -56 28 0 11 7 14 28 10 l27
-5 -28 11 c-31 12 -48 56 -26 70 10 6 10 9 2 9 -17 0 -16 130 1 130 6 0 4 4
-4 10 -8 5 -11 12 -7 16 10 11 37 -16 37 -37 0 -11 -6 -19 -12 -19 -7 0 -5 -5
5 -11 24 -14 28 -9 29 32 0 19 2 42 5 52 5 20 33 23 51 5z m1670 -178 c0 -99
-4 -180 -8 -180 -4 0 -7 81 -7 180 0 99 3 180 8 180 4 0 7 -81 7 -180z m140
118 c-1 -35 -6 -66 -12 -70 -8 -5 -7 -8 2 -8 15 0 16 -32 0 -48 -9 -9 -9 -12
0 -12 7 0 12 -8 12 -19 0 -13 -10 -21 -32 -26 -18 -4 -27 -9 -20 -12 18 -7 15
-30 -5 -42 -17 -10 -17 -10 0 -11 9 0 17 -7 17 -15 0 -8 -2 -15 -4 -15 -2 0
-11 -3 -20 -6 -13 -5 -16 4 -15 60 1 42 5 66 13 66 6 0 6 4 -3 9 -9 6 -12 22
-9 50 4 44 4 44 -27 31 -16 -7 -16 -9 -3 -9 32 -2 18 -90 -14 -91 -14 0 -9 40
5 41 10 0 10 2 0 6 -19 7 -17 79 2 87 17 6 44 -2 63 -20 17 -17 15 -31 -4 -42
-14 -8 -11 -10 14 -14 28 -4 29 -2 22 18 -5 12 -6 24 -3 27 3 4 5 33 5 67 0
33 4 60 8 60 5 0 8 -28 8 -62z m-1430 22 c3 -21 2 -22 -12 -11 -19 16 -21 44
-3 39 6 -3 14 -15 15 -28z m969 -21 c2 -39 -8 -58 -29 -59 -13 0 -9 38 5 43 6
3 2 6 -11 6 -19 1 -21 -3 -16 -25 4 -17 2 -29 -7 -35 -8 -5 -9 -9 -3 -9 17 0
16 -77 -1 -84 -12 -4 -14 8 -12 64 2 58 -1 70 -16 74 -9 2 -15 0 -12 -4 3 -5
2 -10 -2 -13 -5 -2 -2 -2 5 -1 6 2 12 -5 12 -16 0 -11 -2 -20 -4 -20 -2 0 -11
-3 -20 -6 -11 -4 -16 0 -16 13 0 10 -5 24 -12 31 -8 8 -5 14 17 22 15 6 35 12
44 13 9 1 22 6 29 11 7 4 21 5 30 1 14 -5 15 -4 5 6 -7 7 -13 19 -13 27 0 7 6
12 13 10 7 -3 13 -24 14 -49z m-1719 29 c11 -11 17 -48 8 -48 -2 0 -11 -3 -20
-6 -11 -4 -16 0 -16 14 0 11 6 23 13 25 6 3 3 6 -8 6 -18 1 -20 -5 -18 -69 1
-44 -2 -68 -8 -65 -9 6 -11 104 -2 138 5 20 33 23 51 5z m2305 -17 c-2 -6 2
-12 7 -12 6 -1 15 -3 20 -4 6 -1 15 -3 21 -4 5 0 7 -5 4 -11 -3 -5 -1 -10 4
-10 18 0 13 -28 -6 -39 -16 -9 -16 -10 -1 -11 12 0 16 -9 16 -37 0 -21 -5 -41
-11 -45 -9 -6 -9 -8 1 -8 18 0 15 -27 -5 -39 -17 -10 -17 -10 0 -11 24 0 19
-33 -6 -38 -15 -3 -17 5 -16 62 1 42 5 66 13 66 6 0 6 4 -3 9 -9 6 -12 22 -9
50 2 22 0 41 -4 41 -5 0 -8 -9 -8 -20 0 -11 -4 -20 -9 -20 -16 0 -33 30 -28
49 3 11 -1 22 -8 24 -8 4 -10 -3 -7 -20 3 -18 1 -24 -7 -19 -17 11 -13 44 7
55 20 12 38 8 35 -8z m-2293 -61 c0 -12 -7 -20 -17 -21 -17 -1 -17 -2 0 -6 22
-6 18 -37 -6 -41 -14 -3 -17 4 -17 36 0 36 8 49 33 51 4 1 7 -8 7 -19z m2220
0 c0 -12 -7 -20 -17 -21 -17 -1 -17 -2 0 -6 22 -6 18 -37 -6 -41 -14 -3 -17 4
-17 36 0 36 8 49 33 51 4 1 7 -8 7 -19z m-653 -6 c3 -9 1 -25 -5 -35 -8 -13
-8 -19 0 -21 17 -6 2 -38 -18 -38 -11 0 -15 6 -11 19 3 11 -1 22 -8 24 -9 4
-11 -9 -8 -49 3 -43 1 -54 -11 -54 -12 0 -15 10 -13 45 2 30 -1 45 -10 45 -17
0 -26 -17 -11 -22 17 -6 2 -38 -18 -38 -11 0 -15 6 -11 19 3 12 -1 22 -11 26
-14 5 -14 8 -3 15 8 4 20 6 28 3 7 -3 13 0 13 6 0 6 9 11 19 11 11 0 23 5 27
11 3 6 15 8 27 5 15 -4 17 -2 8 7 -14 14 -15 37 -1 37 6 0 13 -7 17 -16z
m-967 -24 c0 -11 -2 -20 -4 -20 -2 0 -11 -3 -20 -6 -11 -4 -16 0 -16 14 0 18
11 29 33 31 4 1 7 -8 7 -19z m1110 0 c0 -11 -6 -20 -12 -20 -9 0 -9 -3 1 -9
17 -11 7 -41 -13 -41 -17 0 -20 71 -3 82 20 13 27 9 27 -12z m598 -66 c-1 -62
-12 -82 -25 -47 -4 9 -1 19 5 21 8 2 8 9 -1 23 -10 16 -9 21 2 28 9 6 10 11 2
15 -16 10 -14 36 3 30 10 -4 14 -23 14 -70z m-688 36 c0 -11 -6 -20 -12 -21
-10 0 -10 -2 0 -6 18 -7 15 -31 -7 -43 -18 -9 -20 -7 -19 32 0 39 10 57 31 58
4 0 7 -9 7 -20z m140 0 c0 -11 -2 -20 -4 -20 -2 0 -11 -3 -20 -6 -11 -4 -16 0
-16 14 0 18 11 29 33 31 4 1 7 -8 7 -19z m-1726 -36 c19 -19 20 -26 4 -42 -9
-9 -9 -12 0 -12 19 0 14 -28 -7 -40 -18 -9 -20 -7 -19 32 0 24 5 47 12 51 7 5
4 7 -8 5 -10 -2 -21 3 -23 10 -7 17 23 15 41 -4z m1394 -43 c0 -42 -3 -50 -22
-54 -11 -2 -29 -8 -38 -12 -14 -5 -18 -2 -18 13 0 12 -4 23 -9 26 -4 3 -6 -6
-3 -19 3 -20 1 -24 -12 -19 -19 7 -21 37 -3 52 7 6 31 14 54 18 33 5 40 9 36
25 -3 10 -1 19 5 19 5 0 10 -22 10 -49z m-1431 -9 c1 -23 -3 -42 -8 -42 -16 0
-23 31 -9 40 8 5 9 9 1 14 -15 10 -14 39 2 34 6 -3 13 -23 14 -46z m1561 7
c-19 -13 -28 -11 -28 6 0 21 34 38 38 18 2 -9 -2 -19 -10 -24z m521 -44 c-1
-41 -5 -65 -13 -65 -8 0 -8 -2 0 -8 6 -4 11 -35 12 -69 0 -52 -2 -63 -16 -64
-15 -1 -14 -2 1 -6 22 -6 18 -37 -6 -41 -14 -3 -17 4 -17 37 0 26 5 41 13 42
10 0 10 2 0 6 -7 2 -13 13 -13 24 0 10 6 19 13 19 8 0 9 3 1 8 -15 10 -16 75
-1 84 9 6 9 8 0 8 -20 0 -15 40 5 41 16 1 16 2 0 6 -30 8 -20 39 14 42 4 1 7
-28 7 -64z m-611 14 c-20 -13 -28 -11 -28 10 0 23 33 33 38 12 2 -7 -2 -17
-10 -22z m839 -47 c-1 -36 -6 -48 -19 -50 -23 -4 -24 24 -1 37 14 8 13 9 -8 8
-22 -2 -24 -6 -22 -44 2 -24 -1 -43 -6 -43 -5 0 -9 20 -9 45 0 34 4 48 19 56
11 5 25 7 32 3 9 -5 9 -4 0 7 -18 18 -16 40 2 33 10 -4 14 -19 12 -52z m-784
34 c3 -8 -1 -17 -9 -20 -23 -9 -24 -8 -24 14 0 23 25 27 33 6z m-1293 -15 c0
-10 -9 -21 -20 -24 -15 -4 -20 0 -20 13 0 17 12 27 33 29 4 1 7 -7 7 -18z
m1250 0 c0 -10 -9 -21 -20 -24 -15 -4 -20 0 -20 13 0 17 12 27 33 29 4 1 7 -7
7 -18z m-1500 -1 c0 -5 -9 -10 -19 -10 -14 0 -18 -5 -14 -20 3 -11 0 -20 -6
-20 -12 0 -14 20 -5 44 7 17 44 22 44 6z m140 -1 c0 -7 -10 -9 -25 -7 -23 5
-30 -10 -11 -23 19 -14 -4 -40 -31 -37 -40 4 -44 42 -6 62 33 18 73 21 73 5z
m58 -16 c-5 -25 -28 -28 -28 -4 0 12 6 21 16 21 9 0 14 -7 12 -17z m1250 0
c-2 -9 -20 -22 -40 -29 -35 -12 -38 -11 -38 6 0 11 11 22 28 28 40 15 54 14
50 -5z m-1428 -13 c0 -11 -5 -20 -12 -20 -16 0 -3 -11 17 -14 9 -1 20 -9 25
-16 7 -11 14 -11 34 -2 l25 11 -2 -67 -2 -67 -30 0 c-28 0 -30 2 -29 38 0 20
-3 37 -8 37 -4 0 -8 9 -8 20 0 11 -4 20 -8 20 -4 0 -6 -22 -5 -49 3 -42 0 -49
-17 -54 -15 -4 -20 0 -20 14 0 10 6 19 13 20 10 0 10 2 0 6 -7 2 -13 13 -13
24 0 10 6 19 13 20 10 0 10 2 0 6 -7 2 -13 22 -13 43 0 34 8 47 33 49 4 1 7
-8 7 -19z m140 0 c0 -12 -7 -20 -17 -21 -16 -1 -16 -2 0 -6 13 -3 17 -11 14
-24 -3 -10 -1 -22 4 -25 5 -3 9 8 9 24 0 17 6 32 15 36 10 4 15 -1 15 -14 0
-11 -6 -20 -12 -21 -10 0 -10 -2 0 -6 15 -6 16 -79 1 -88 -20 -13 -59 4 -59
26 0 16 3 18 18 10 10 -5 24 -6 32 -1 10 6 5 9 -16 12 -17 2 -28 8 -26 16 1 6
-2 12 -8 12 -15 0 -12 77 3 83 22 10 27 7 27 -13z m1198 -10 c3 -21 2 -22 -12
-11 -19 16 -21 44 -3 39 6 -3 14 -15 15 -28z m-1108 -5 c0 -16 -27 -32 -37
-22 -3 4 -3 13 0 22 8 20 37 20 37 0z m1413 -4 c-2 -6 1 -11 7 -11 15 0 10
-128 -5 -134 -10 -3 -13 7 -13 40 0 25 4 44 11 44 20 0 -2 13 -25 14 -29 1
-37 35 -12 53 20 15 40 12 37 -6z m487 -4 c0 -7 -5 -18 -12 -25 -8 -8 -8 -12
-1 -12 14 0 13 -73 -1 -82 -18 -13 -26 -9 -26 12 0 11 6 20 13 21 10 0 10 2 0
6 -7 2 -13 22 -13 43 0 34 8 47 33 49 4 1 7 -5 7 -12z m-2184 -79 l-1 -73 -30
0 c-24 0 -31 5 -33 25 -3 21 -2 22 12 11 11 -10 19 -10 33 -1 11 7 12 10 3 7
-23 -7 -50 11 -50 33 0 21 27 40 47 33 7 -3 9 3 6 16 -3 12 -1 21 5 21 6 0 9
-29 8 -72z m1607 53 c-2 -6 2 -12 7 -12 6 -1 14 -2 18 -3 5 0 16 -9 26 -18 24
-24 19 -91 -8 -96 -16 -3 -18 2 -15 42 2 25 1 46 -3 46 -8 0 -12 -38 -8 -74 2
-17 -15 -35 -32 -36 -14 0 -9 40 5 41 10 0 10 2 0 6 -19 7 -16 30 5 42 16 10
16 10 -2 11 -13 0 -17 5 -13 19 3 11 0 22 -7 24 -7 3 -10 -12 -9 -46 2 -32 -2
-54 -10 -59 -9 -6 -9 -8 1 -8 6 0 12 -9 12 -20 0 -11 -7 -20 -15 -20 -12 0
-15 13 -14 63 1 34 7 65 13 70 6 4 1 6 -11 4 -24 -3 -44 -17 -25 -17 16 0 14
-122 -2 -132 -18 -13 -26 -9 -26 12 0 11 6 20 13 20 9 0 8 3 -2 9 -9 6 -12 22
-9 50 2 22 0 41 -4 41 -8 0 -12 -38 -8 -74 1 -10 -4 -23 -12 -27 -10 -7 -10
-9 0 -9 6 0 12 -9 12 -21 0 -17 -5 -20 -32 -17 -20 2 -32 8 -30 16 1 6 -2 12
-7 12 -5 0 -11 10 -13 22 -2 12 -9 23 -16 24 -7 1 -8 0 -2 -3 17 -8 12 -43 -5
-37 -22 9 -18 41 5 54 22 12 44 5 35 -11 -8 -11 15 -12 33 0 10 6 7 10 -12 15
-16 4 -26 13 -26 25 0 22 24 45 42 39 7 -3 19 1 26 9 8 7 18 10 24 7 6 -4 13
-3 17 2 8 12 63 33 76 29 6 -1 9 -8 8 -14z m141 -2 c-3 -5 0 -9 6 -9 7 0 10
-16 8 -42 -2 -31 -8 -44 -20 -46 -11 -2 -18 3 -18 12 0 8 8 20 18 25 15 9 15
10 1 11 -13 0 -17 9 -17 34 0 26 4 33 14 29 8 -3 11 -9 8 -14z m334 -159 c0
-99 -4 -180 -8 -180 -4 0 -7 81 -8 180 0 99 4 180 8 180 4 0 7 -81 8 -180z
m-1810 129 c-10 -7 -10 -9 0 -9 21 0 11 -84 -10 -88 -11 -2 -18 3 -18 12 0 8
8 20 18 26 15 10 15 11 0 6 -13 -4 -16 3 -16 39 0 33 4 45 16 47 21 4 29 -21
10 -33z m2080 0 c-20 -13 -28 -11 -28 10 0 23 33 33 38 12 2 -7 -2 -17 -10
-22z m-1635 -19 c7 0 17 4 23 9 5 4 24 13 41 19 29 10 34 8 43 -9 14 -24 26
-24 80 2 42 20 44 20 57 3 15 -21 42 -27 59 -13 16 13 42 1 50 -23 6 -19 -8
-37 -28 -38 -13 0 -9 38 5 43 6 3 2 4 -10 4 -18 -1 -21 -6 -16 -28 4 -21 1
-27 -16 -32 -16 -4 -21 0 -21 13 0 10 6 21 13 23 7 3 5 6 -5 6 -18 1 -23 -20
-19 -74 2 -20 1 -20 -14 -1 -18 24 -20 56 -2 56 8 0 8 3 -2 9 -8 5 -11 16 -8
24 4 10 -2 17 -14 20 -15 4 -17 2 -11 -6 24 -29 8 -106 -20 -107 -14 0 -9 40
5 41 10 0 10 2 0 6 -7 2 -13 13 -13 23 0 10 6 20 13 23 6 3 2 4 -10 4 -18 -1
-21 -6 -16 -28 4 -21 1 -27 -16 -32 -16 -4 -21 0 -21 14 0 10 5 19 12 19 6 0
9 3 5 6 -3 3 -15 3 -28 -1 -16 -5 -18 -9 -9 -15 15 -9 6 -40 -11 -40 -7 0 -10
16 -7 44 2 37 0 46 -15 50 -13 3 -15 1 -9 -7 14 -18 13 -97 -1 -97 -8 0 -7 -3
2 -9 17 -11 7 -41 -13 -41 -17 0 -20 71 -3 82 9 6 9 8 0 8 -7 0 -13 9 -13 19
0 11 6 21 13 24 6 3 2 4 -10 4 -18 -1 -21 -5 -16 -25 3 -15 1 -27 -8 -33 -10
-6 -11 -9 -1 -9 25 0 11 -31 -19 -42 -16 -6 -28 -12 -26 -14 2 -3 16 0 31 5
22 9 26 8 26 -9 0 -22 -4 -25 -46 -34 -31 -7 -32 -7 -32 33 -1 25 4 41 11 41
8 0 7 3 -2 9 -9 6 -12 22 -9 50 2 29 0 41 -9 41 -17 0 -17 17 0 23 6 2 20 -4
30 -14 10 -11 23 -19 30 -19z m-75 8 c14 -17 13 -91 -1 -100 -9 -6 -9 -8 1 -8
7 0 12 -14 12 -36 0 -24 -4 -34 -12 -31 -7 2 -12 10 -10 16 1 6 -2 11 -7 11
-5 0 -9 18 -9 40 -1 24 4 40 11 40 7 0 6 4 -3 10 -12 7 -13 13 -4 28 10 15 8
18 -7 19 -15 1 -17 -3 -12 -28 4 -21 2 -29 -8 -29 -11 0 -12 -2 -1 -9 17 -10
12 -83 -5 -89 -8 -2 -13 5 -13 17 0 12 6 21 13 21 9 0 8 3 -2 9 -9 6 -12 22
-9 49 3 33 0 42 -14 45 -10 3 -16 1 -13 -3 3 -5 2 -10 -2 -13 -5 -2 -3 -2 4
-1 15 4 15 -78 -1 -88 -8 -6 -7 -8 2 -8 20 0 14 -37 -7 -43 -17 -4 -20 0 -19
37 0 22 5 44 12 48 8 6 7 8 -1 8 -7 0 -13 9 -13 19 0 11 -3 22 -8 25 -4 2 -6
-17 -5 -42 2 -35 -1 -50 -14 -61 -16 -12 -16 -13 -1 -8 14 5 17 -1 16 -36 0
-38 -10 -56 -30 -57 -14 0 -9 40 5 41 10 0 10 2 0 6 -7 2 -13 12 -14 21 0 11
-2 12 -6 5 -7 -20 -23 -15 -23 6 0 22 25 45 42 38 10 -3 13 10 13 47 0 45 3
52 26 63 14 7 36 14 47 16 12 2 25 6 28 10 11 11 31 8 42 -5z m1660 3 c8 -4
12 -19 10 -31 -4 -29 -28 -39 -28 -12 0 11 6 22 13 25 6 3 3 5 -9 4 -16 -1
-19 -6 -16 -24 3 -18 1 -22 -12 -17 -21 8 -20 40 2 53 21 13 24 13 40 2z
m-2113 -71 c4 -7 13 -7 26 0 16 9 19 7 19 -10 0 -11 -6 -20 -12 -20 -10 0 -10
-2 0 -8 15 -10 15 -162 0 -162 -5 0 -8 10 -7 23 1 12 -1 35 -6 51 -5 20 -4 31
6 37 10 6 11 9 2 9 -7 0 -13 12 -13 27 0 14 -3 23 -7 20 -9 -9 -33 12 -33 29
0 16 16 19 25 4z m1995 -5 c0 -7 -8 -19 -17 -24 -17 -10 -17 -10 1 -11 14 0
17 -5 12 -24 -5 -19 -1 -25 16 -29 15 -4 18 -3 10 5 -14 14 6 58 28 58 21 0
40 -20 40 -42 0 -10 -2 -18 -4 -18 -2 0 -11 -3 -20 -6 -11 -4 -16 0 -16 14 0
12 -4 23 -9 26 -4 3 -6 -6 -3 -19 4 -21 -1 -27 -32 -40 -19 -8 -38 -15 -41
-15 -11 0 -4 40 8 41 10 0 10 2 0 6 -7 2 -13 22 -13 43 0 34 8 47 33 49 4 1 7
-6 7 -14z m88 -9 c3 -12 -1 -17 -10 -14 -7 3 -15 13 -16 22 -3 12 1 17 10 14
7 -3 15 -13 16 -22z m30 -17 c-9 -6 -14 -3 -16 8 -2 8 2 19 10 24 9 6 14 3 16
-8 2 -8 -2 -19 -10 -24z m-1418 6 c0 -16 -27 -32 -37 -22 -3 4 -3 13 0 22 8
20 37 20 37 0z m140 0 c0 -16 -27 -32 -37 -22 -3 4 -3 13 0 22 8 20 37 20 37
0z m-1022 -43 c0 -42 0 -43 -31 -40 -22 2 -33 9 -35 21 -3 15 1 18 20 13 l23
-6 -22 11 c-36 19 -29 44 11 44 34 0 34 -1 34 -43z m118 38 c20 8 24 6 24 -10
0 -11 -6 -20 -12 -20 -10 0 -10 -2 0 -9 8 -5 12 -22 10 -46 -3 -35 -7 -40 -37
-47 -18 -5 -31 -12 -28 -15 3 -3 20 -1 36 5 28 10 31 9 31 -9 0 -10 -6 -19
-12 -19 -10 0 -10 -2 -1 -8 8 -5 13 -29 12 -65 -1 -45 -6 -60 -21 -68 -10 -5
-22 -8 -26 -5 -5 3 -7 -8 -4 -23 3 -19 -1 -30 -12 -34 -11 -5 -16 -1 -16 12 0
11 6 22 13 24 6 3 3 6 -8 6 -11 0 -27 -4 -35 -9 -13 -8 -12 -10 3 -10 9 0 17
-7 17 -15 0 -7 -8 -19 -17 -25 -16 -10 -16 -11 -1 -6 13 4 16 -3 16 -39 0 -34
-4 -44 -19 -48 -14 -4 -19 0 -19 14 0 10 6 19 13 20 10 0 10 2 0 6 -8 3 -13
23 -13 48 0 31 -5 47 -17 54 -17 10 -16 11 2 12 11 1 26 1 34 0 7 -2 10 2 7 7
-5 9 29 20 75 25 17 1 15 27 -2 27 -16 0 -10 29 9 39 16 10 16 10 -2 11 -13 0
-17 5 -13 20 3 11 1 20 -4 20 -9 0 -13 -33 -10 -76 1 -12 -5 -24 -13 -27 -12
-5 -15 3 -14 36 0 23 5 45 12 49 8 6 7 8 -1 8 -8 0 -13 15 -13 39 0 37 3 40
38 52 26 9 32 14 19 17 -13 3 -17 10 -14 24 4 14 0 22 -14 25 -11 3 -19 14
-19 26 0 16 3 18 11 10 8 -8 20 -8 35 -3z m152 -31 c-10 -7 -10 -9 0 -9 21 0
11 -84 -10 -88 -11 -2 -18 3 -18 12 0 8 8 20 18 25 15 9 15 10 1 11 -24 0 -25
77 -1 82 21 4 29 -21 10 -33z m558 6 c-3 -8 -10 -15 -16 -15 -14 0 -12 37 3
43 15 5 21 -8 13 -28z m-648 13 c16 -16 15 -48 0 -49 -10 0 -10 -2 0 -6 19 -7
15 -43 -5 -44 -16 -1 -16 -2 -2 -6 20 -5 25 -83 6 -83 -15 0 14 -20 30 -20 6
0 9 8 6 20 -3 11 -1 20 4 20 6 0 11 -41 12 -94 1 -88 0 -95 -20 -101 -13 -4
-27 -1 -40 11 -21 19 -26 54 -6 54 9 0 9 2 0 8 -16 10 -15 124 1 134 8 6 8 8
-1 8 -8 0 -12 24 -12 80 0 80 4 91 27 68z m1950 -52 c0 -35 -4 -45 -19 -49
-14 -4 -19 0 -19 14 0 10 6 19 13 20 10 0 10 2 0 6 -19 7 -16 41 5 46 9 3 18
5 19 6 1 0 1 -19 1 -43z m-2050 25 c8 -4 12 -19 10 -31 -4 -29 -28 -39 -28
-12 0 11 6 23 13 26 6 3 3 4 -7 3 -10 -1 -21 4 -23 11 -5 14 15 16 35 3z
m1206 -22 c-3 -5 0 -9 5 -9 20 0 11 -38 -10 -43 -18 -5 -20 -2 -17 18 4 17 0
25 -14 28 -10 3 -16 2 -13 -3 5 -9 -23 -22 -34 -16 -3 3 -5 -15 -4 -40 1 -24
-1 -44 -6 -44 -14 0 -11 87 2 98 32 25 106 34 91 11z m-1237 -37 c1 -23 -3
-42 -8 -42 -16 0 -23 31 -9 40 8 5 9 9 1 14 -15 10 -14 39 2 34 6 -3 13 -23
14 -46z m2223 9 c0 -10 -9 -21 -20 -24 -15 -4 -20 0 -20 13 0 17 12 27 33 29
4 1 7 -7 7 -18z m-1024 -26 c-7 -19 -36 -19 -36 0 0 17 33 38 38 24 2 -5 1
-16 -2 -24z m971 1 c-3 -7 -20 -16 -38 -20 -18 -3 -29 -9 -26 -12 3 -4 20 -2
36 4 28 10 31 9 31 -8 0 -13 -9 -22 -25 -26 -20 -5 -24 -11 -19 -26 4 -13 1
-24 -7 -29 -10 -6 -11 -9 -1 -9 18 0 15 -27 -5 -39 -16 -9 -16 -10 -1 -11 12
0 16 -9 16 -37 0 -35 -10 -52 -30 -53 -5 0 -8 9 -8 20 0 11 6 20 13 20 9 0 9
2 0 8 -16 10 -15 124 1 134 8 6 7 8 -1 8 -8 0 -13 14 -13 39 0 35 3 39 38 53
37 14 49 9 39 -16z m-1212 14 c6 -9 2 -12 -27 -14 -7 -1 -19 -7 -27 -14 -11
-10 -16 -10 -29 0 -13 11 -12 13 9 16 13 2 28 8 34 13 12 12 32 11 40 -1z
m-545 -21 c0 -11 -4 -17 -10 -14 -5 3 -10 13 -10 21 0 8 5 14 10 14 6 0 10 -9
10 -21z m445 -5 c13 -5 14 -8 3 -15 -10 -7 -9 -9 4 -9 12 0 16 -9 16 -37 0
-21 -5 -41 -11 -45 -9 -6 -9 -8 1 -8 20 0 14 -37 -7 -43 -17 -4 -19 1 -19 39
0 27 4 44 11 44 9 0 9 2 1 8 -7 4 -13 16 -15 26 -2 11 -11 21 -19 24 -12 4
-13 2 -2 -9 6 -7 12 -21 12 -31 0 -10 -6 -18 -12 -19 -10 0 -10 -2 0 -6 20 -8
15 -43 -7 -43 -15 0 -19 8 -19 40 -1 24 4 40 11 41 7 0 1 5 -13 11 l-25 10 35
13 c19 7 36 13 37 14 1 0 9 -2 18 -5z m113 -31 c0 -35 -10 -52 -30 -53 -5 0
-8 9 -8 20 0 11 6 20 13 20 8 0 8 3 -2 9 -17 11 -7 41 13 41 10 0 14 -12 14
-37z m1110 -3 c1 -24 -4 -40 -11 -40 -8 0 -7 -3 2 -9 17 -11 7 -41 -13 -41 -9
0 -14 12 -14 40 -1 24 4 40 11 40 8 0 7 3 -2 9 -17 11 -7 41 13 41 9 0 14 -12
14 -40z m-1858 -8 c-10 -4 -10 -6 0 -12 16 -10 6 -40 -14 -40 -21 0 -20 78 2
82 20 4 31 -24 12 -30z m688 -3 c-10 -7 -10 -9 0 -9 17 0 12 -82 -5 -88 -8 -2
-13 5 -13 17 0 12 6 21 13 22 10 0 10 2 0 6 -7 2 -13 22 -13 43 0 22 5 40 13
43 17 6 22 -24 5 -34z m280 0 c-9 -6 -10 -9 -1 -9 9 0 12 -19 12 -64 -1 -54
-4 -65 -20 -69 -14 -4 -19 0 -19 14 0 10 6 19 13 20 10 0 10 2 0 6 -19 7 -16
30 5 42 15 9 15 10 1 11 -24 0 -25 77 -1 82 21 4 29 -21 10 -33z m-1188 0 c0
-12 -5 -16 -15 -13 -8 4 -15 15 -15 25 0 12 5 16 15 13 8 -4 15 -15 15 -25z
m763 2 c-2 -6 1 -11 7 -11 15 0 10 -128 -5 -134 -10 -3 -13 7 -13 40 0 27 4
44 11 44 9 0 9 2 1 8 -7 4 -14 16 -17 27 -4 18 -5 17 -6 -3 -1 -14 -6 -22 -13
-20 -21 7 -22 41 -2 55 20 15 40 12 37 -6z m-90 -29 c-2 -6 7 -14 19 -18 48
-15 65 -57 27 -67 -18 -5 -20 -2 -16 19 3 19 1 24 -10 20 -8 -3 -26 -6 -39 -6
-14 0 -22 -4 -19 -10 3 -6 17 -7 29 -4 22 5 24 2 24 -35 1 -31 -4 -41 -19 -46
-34 -11 -46 10 -47 80 0 50 4 67 16 75 20 11 38 7 35 -8z m476 -74 c1 -64 -2
-94 -11 -100 -10 -6 -10 -8 0 -8 6 0 12 -9 12 -20 0 -11 -6 -20 -12 -21 -10 0
-10 -2 0 -6 15 -6 16 -83 1 -83 -6 0 -3 -7 5 -16 18 -17 13 -34 -10 -34 -18 0
-20 80 -1 81 10 0 10 2 0 6 -9 3 -13 27 -13 69 0 44 4 64 13 64 8 0 9 2 1 8
-7 4 -13 16 -15 26 -2 11 -10 21 -17 22 -7 1 -8 0 -2 -3 17 -8 12 -43 -5 -37
-22 9 -18 41 5 54 11 6 24 9 28 6 4 -2 6 15 5 40 -1 24 1 44 6 44 5 0 9 -41
10 -92z m-1152 34 c1 -23 -3 -42 -8 -42 -16 0 -23 31 -9 40 8 5 9 9 1 14 -15
10 -14 39 2 34 6 -3 13 -23 14 -46z m2031 -37 c0 -36 -4 -65 -8 -65 -5 0 -8
29 -8 65 0 36 4 65 8 65 5 0 8 -29 8 -65z m-1801 -12 c-2 -56 -5 -68 -19 -71
-11 -2 -18 3 -18 12 0 8 8 20 18 26 16 11 16 11 0 6 -13 -4 -18 0 -18 14 0 11
6 20 13 21 10 0 10 2 0 6 -19 7 -16 41 5 46 9 3 18 5 19 6 1 0 1 -29 0 -66z
m1851 -8 c0 -28 -4 -45 -11 -45 -8 0 -7 -4 2 -9 17 -11 7 -41 -13 -41 -17 0
-20 71 -3 82 9 6 9 8 0 8 -20 0 -15 38 5 43 9 3 18 5 19 6 1 0 1 -19 1 -44z
m-1248 20 c0 -16 -27 -32 -37 -22 -3 4 -3 13 0 22 8 20 37 20 37 0z m-90 -30
c0 -16 -27 -32 -37 -22 -3 4 -3 13 0 22 8 20 37 20 37 0z m-654 -40 c-7 -19
-36 -19 -36 0 0 17 33 38 38 24 2 -5 1 -16 -2 -24z m1022 -15 c3 -21 2 -22
-12 -11 -19 16 -21 44 -3 39 6 -3 14 -15 15 -28z m-1160 -55 c0 -36 -4 -65 -8
-65 -5 0 -8 29 -8 65 0 36 4 65 8 65 5 0 8 -29 8 -65z m2080 -115 c0 -99 -4
-180 -8 -180 -4 0 -7 81 -8 180 0 99 4 180 8 180 4 0 7 -81 8 -180z m-1810
129 c-10 -7 -10 -9 0 -9 21 0 11 -84 -10 -88 -11 -2 -18 3 -18 12 0 8 8 20 18
26 15 10 15 11 0 6 -13 -4 -16 3 -16 39 0 33 4 45 16 47 21 4 29 -21 10 -33z
m50 19 c16 -16 15 -48 0 -49 -10 0 -10 -2 0 -6 19 -7 14 -40 -7 -46 -17 -4
-19 2 -20 54 -1 59 5 69 27 47z m842 -25 c0 -24 -25 -9 -28 17 -3 21 -2 22 12
11 9 -7 16 -20 16 -28z m-932 -53 c0 -44 -4 -80 -9 -80 -4 0 -7 36 -6 80 0 44
4 80 8 80 5 0 8 -36 7 -80z m1900 26 c0 -35 -4 -45 -19 -49 -14 -4 -19 0 -19
14 0 10 6 19 13 20 10 0 10 2 0 6 -19 7 -16 41 5 46 9 3 18 5 19 6 1 0 1 -19
1 -43z m-968 -17 c0 -12 -5 -16 -15 -13 -8 4 -15 15 -15 25 0 12 5 16 15 13 8
-4 15 -15 15 -25z m-2 -43 c3 -12 -1 -17 -10 -14 -7 3 -15 13 -16 22 -3 12 1
17 10 14 7 -3 15 -13 16 -22z m-1159 -61 c0 -36 -3 -65 -8 -65 -5 0 -9 29 -9
65 0 36 4 65 8 65 4 0 8 -29 9 -65z m51 50 c0 -16 -27 -32 -37 -22 -3 4 -3 13
0 22 8 20 37 20 37 0z m280 0 c0 -16 -27 -32 -37 -22 -3 4 -3 13 0 22 8 20 37
20 37 0z m1800 0 c0 -16 -27 -32 -37 -22 -3 4 -3 13 0 22 8 20 37 20 37 0z
m-1862 -36 c-9 -6 -10 -9 -1 -9 9 0 12 -19 12 -64 -1 -54 -4 -65 -20 -69 -14
-4 -19 0 -19 14 0 10 6 19 13 20 10 0 10 2 0 6 -19 7 -16 30 5 43 15 10 15 11
0 6 -13 -4 -16 3 -16 39 0 33 4 45 16 47 21 4 29 -21 10 -33z m880 19 c11 -11
17 -48 8 -48 -2 0 -11 -3 -20 -6 -11 -4 -16 0 -16 14 0 12 -3 23 -8 26 -4 2
-6 -15 -5 -40 1 -24 -2 -44 -7 -44 -10 0 -12 61 -3 93 5 20 33 23 51 5z
m-1110 -49 c-20 -13 -28 -11 -28 10 0 23 33 33 38 12 2 -7 -2 -17 -10 -22z
m280 0 c-10 -6 -10 -9 0 -9 18 0 15 -27 -5 -39 -16 -9 -16 -10 -2 -11 26 0 24
-76 -2 -83 -14 -4 -19 0 -19 14 0 10 6 19 13 19 9 0 9 2 0 8 -8 5 -12 31 -12
69 1 49 5 63 18 65 20 4 28 -22 9 -33z m1800 0 c-20 -13 -28 -11 -28 10 0 23
33 33 38 12 2 -7 -2 -17 -10 -22z m-1890 -91 c0 -62 -5 -119 -10 -125 -7 -9
-7 -13 1 -13 7 0 10 -27 9 -80 -1 -45 -5 -77 -11 -73 -5 3 -7 14 -4 24 3 10
-1 26 -9 36 -7 10 -14 14 -14 9 0 -5 -9 -1 -20 9 -22 20 -27 55 -7 56 10 0 10
2 0 6 -15 5 -18 73 -4 73 15 0 23 -18 11 -23 -6 -3 -5 -4 2 -3 7 2 20 0 28 -4
13 -7 15 8 13 106 -1 63 2 114 7 114 4 0 8 -51 8 -112z m-141 53 c17 -22 16
-30 -4 -39 -14 -5 -12 -8 12 -12 17 -3 29 -11 28 -18 -2 -7 1 -12 7 -12 6 0 9
-33 8 -80 -1 -44 -5 -80 -10 -80 -5 0 -9 10 -8 23 4 39 1 46 -22 49 -29 4 -49
55 -28 68 12 8 12 10 1 10 -9 0 -12 12 -9 45 2 25 0 45 -4 45 -5 0 -8 -9 -8
-20 0 -23 -10 -26 -28 -8 -16 16 -15 45 1 51 18 8 50 -4 64 -22z m1073 9 c0
-12 -7 -20 -17 -21 -16 -1 -16 -2 -2 -6 19 -5 25 -83 7 -83 -17 0 -2 -11 19
-14 25 -4 42 -54 23 -66 -12 -7 -16 -3 -21 18 -6 23 -7 24 -8 5 -1 -25 -13
-30 -29 -10 -14 16 -13 90 1 99 9 6 9 8 0 8 -8 0 -13 15 -13 39 0 35 8 48 33
50 4 1 7 -8 7 -19z m970 1 c0 -10 -9 -21 -20 -24 -15 -4 -20 0 -20 13 0 17 12
27 33 29 4 1 7 -7 7 -18z m-1021 -97 c0 -36 -3 -63 -8 -60 -11 7 -12 126 -1
126 4 0 8 -29 9 -66z m215 60 c21 -8 22 -64 2 -64 -8 0 -16 10 -18 22 -2 12
-10 23 -18 26 -12 4 -13 2 -2 -9 6 -7 12 -21 12 -31 0 -10 -6 -18 -12 -19 -10
0 -10 -2 0 -6 18 -7 15 -31 -7 -43 -18 -9 -20 -7 -19 32 0 24 5 46 12 50 6 5
2 8 -11 8 -33 0 -28 14 10 27 17 5 33 11 34 12 1 0 8 -2 17 -5z m804 -31 c0
-21 -5 -41 -11 -45 -9 -6 -9 -8 1 -8 19 0 14 -40 -5 -41 -16 -1 -16 -2 -1 -6
19 -5 23 -74 5 -85 -9 -6 -9 -8 0 -8 9 0 12 -19 12 -64 -1 -54 -4 -65 -20 -69
-14 -4 -19 0 -19 14 0 10 6 19 13 20 10 0 10 2 0 6 -20 7 -16 43 5 44 15 1 15
2 1 6 -20 5 -24 74 -6 85 9 6 9 8 0 8 -17 0 -16 130 1 130 6 0 5 4 -3 9 -17
11 -7 41 13 41 10 0 14 -12 14 -37z m-2080 -39 c0 -36 -2 -43 -13 -34 -18 15
-18 91 0 84 8 -4 13 -22 13 -50z m1197 -20 c0 -38 -4 -49 -17 -52 -14 -3 -18
3 -18 22 0 14 -5 26 -11 26 -5 0 -7 5 -3 11 3 6 15 8 27 5 15 -4 17 -2 8 7
-15 15 -14 40 2 35 7 -3 12 -23 12 -54z m-966 -26 c-1 -35 -7 -66 -13 -70 -8
-6 -7 -8 2 -8 7 0 12 -15 12 -40 0 -25 -5 -40 -12 -41 -10 0 -10 -2 0 -6 19
-7 15 -43 -5 -44 -17 -1 -17 -2 0 -6 17 -5 24 -23 8 -23 -17 0 -29 26 -29 68
-1 32 3 42 16 43 15 1 15 2 1 6 -24 6 -25 132 -1 134 15 1 15 2 0 6 -29 7 -21
43 9 43 10 0 13 -16 12 -62z m51 17 c0 -7 -8 -19 -17 -24 -16 -9 -16 -10 -2
-11 26 0 24 -76 -2 -83 -14 -4 -19 0 -19 14 0 10 6 19 13 20 10 0 10 2 0 6
-13 5 -18 75 -6 86 12 12 33 7 33 -8z m1748 -50 c0 -36 -4 -65 -8 -65 -5 0 -8
29 -8 65 0 36 4 65 8 65 5 0 8 -29 8 -65z m-548 -18 c0 -8 -9 -17 -21 -20 -18
-5 -20 -2 -16 19 2 13 0 24 -4 24 -5 0 -9 -9 -9 -20 0 -11 -4 -20 -10 -20 -16
0 -12 37 6 55 15 15 18 15 35 -4 11 -11 19 -27 19 -34z m-62 -29 c21 -21 13
-45 -20 -60 -18 -8 -27 -13 -20 -11 6 1 12 -6 12 -17 0 -11 -2 -20 -4 -20 -2
0 -11 -3 -20 -6 -13 -5 -16 2 -16 35 0 28 5 43 15 46 8 3 22 7 31 10 9 3 14 8
11 12 -13 12 -67 -19 -67 -39 0 -26 -24 -17 -28 10 -4 24 31 44 57 34 9 -3 12
-1 7 6 -10 16 26 16 42 0z m-1138 -43 c0 -7 -8 -19 -17 -25 -17 -11 -17 -11 0
-6 12 4 17 0 17 -14 0 -11 -6 -20 -12 -21 -10 0 -10 -2 0 -6 18 -7 15 -30 -5
-42 -16 -9 -16 -10 -1 -11 12 0 16 -9 16 -37 0 -21 -5 -41 -11 -45 -9 -6 -9
-8 1 -8 18 0 15 -27 -5 -39 -16 -9 -16 -10 -1 -11 12 0 16 -9 16 -37 0 -21 -5
-41 -11 -45 -9 -6 -9 -8 1 -8 18 0 15 -27 -5 -40 -16 -10 -16 -11 -1 -6 13 4
16 -3 16 -40 0 -27 -4 -44 -11 -44 -8 0 -7 -4 2 -9 17 -11 7 -41 -13 -41 -17
0 -20 71 -3 82 9 6 9 8 0 8 -17 0 -16 130 1 130 7 0 7 3 -1 8 -16 10 -15 124
1 134 8 6 8 8 -1 8 -8 0 -12 25 -12 82 0 45 2 86 5 90 9 14 34 9 34 -7z m1748
-27 c0 -24 -5 -49 -10 -55 -7 -9 -7 -13 1 -13 14 0 14 -27 0 -36 -6 -3 -14 -2
-18 4 -4 7 -11 4 -19 -8 -7 -11 -8 -20 -3 -20 13 0 11 -74 -2 -82 -20 -13 -27
-9 -27 12 0 11 6 20 13 21 10 0 10 2 0 6 -7 2 -13 13 -13 23 0 11 -8 24 -17
29 -17 10 -16 11 2 12 11 1 23 1 26 1 3 -1 4 10 2 23 -4 16 1 27 16 35 12 6
25 9 29 6 4 -2 6 15 5 40 -1 24 2 44 7 44 5 0 9 -19 8 -42z m-702 -12 c20 -21
17 -43 -7 -49 -16 -4 -20 -1 -17 16 2 12 -4 27 -12 34 -13 11 -13 12 3 13 10
0 25 -6 33 -14z m-36 -27 c0 -11 -4 -17 -10 -14 -5 3 -10 13 -10 21 0 8 5 14
10 14 6 0 10 -9 10 -21z m-12 -31 c17 -17 15 -45 -4 -52 -13 -5 -15 -1 -12 19
5 26 -6 32 -32 15 -13 -8 -13 -10 2 -10 12 0 16 -9 16 -37 0 -35 -10 -52 -30
-53 -14 0 -9 40 5 41 10 0 10 2 0 6 -7 2 -13 13 -13 24 0 11 -7 22 -16 26 -23
9 5 24 30 17 12 -4 16 -2 12 5 -10 15 27 14 42 -1z m62 -13 c0 -16 -27 -32
-37 -22 -3 4 -3 13 0 22 8 20 37 20 37 0z m-1110 -36 c0 -12 -5 -16 -15 -13
-8 4 -15 15 -15 25 0 12 5 16 15 13 8 -4 15 -15 15 -25z m764 15 c9 -3 13 -10
10 -15 -3 -5 4 -9 15 -9 11 0 25 -9 31 -19 10 -20 25 -22 48 -8 7 5 21 5 33 2
15 -5 19 -14 17 -33 -4 -30 -28 -43 -28 -14 0 11 6 23 13 26 6 2 2 4 -10 2
-24 -2 -44 -16 -25 -16 21 0 13 -37 -9 -43 -18 -5 -20 -2 -16 19 2 13 1 24 -4
24 -4 0 -9 -12 -11 -27 -2 -24 -8 -28 -33 -28 -23 0 -32 6 -39 28 -8 22 -7 30
4 37 9 6 10 10 3 10 -6 0 -13 10 -15 22 -2 12 -10 23 -18 25 -10 3 -11 2 -4
-4 7 -4 12 -27 12 -51 1 -35 -2 -41 -12 -32 -20 16 -18 88 2 100 21 12 17 11
36 4z m204 -44 c0 -43 -3 -50 -20 -50 -15 0 -19 5 -15 19 3 12 -1 22 -11 26
-14 5 -14 8 -3 15 8 4 21 5 30 2 13 -5 14 -3 4 10 -7 8 -10 18 -6 21 15 16 21
4 21 -43z m828 5 c-3 -8 -10 -15 -16 -15 -14 0 -12 37 3 43 15 5 21 -8 13 -28z
m-88 -30 c0 -31 -5 -48 -16 -55 -16 -9 -16 -9 0 -10 12 0 16 -9 16 -37 0 -35
-10 -52 -30 -53 -14 0 -9 40 5 41 10 0 10 2 0 6 -7 2 -13 13 -13 23 0 10 -4
21 -9 24 -4 3 -6 -6 -3 -21 3 -18 1 -24 -7 -19 -28 18 2 75 34 62 12 -4 13 -2
2 15 -10 16 -9 21 2 28 9 6 10 11 2 15 -16 10 -14 26 3 26 10 0 14 -13 14 -45z
m-1711 -13 c1 -23 -3 -42 -8 -42 -16 0 -23 31 -9 40 8 5 9 9 1 14 -15 10 -14
39 2 34 6 -3 13 -23 14 -46z m1763 -51 c0 -10 -9 -21 -20 -24 -15 -4 -20 0
-20 13 0 17 12 27 33 29 4 1 7 -7 7 -18z m-1760 -22 c0 -12 -5 -16 -15 -13 -8
4 -15 15 -15 25 0 12 5 16 15 13 8 -4 15 -15 15 -25z m1650 -29 c14 -26 9 -92
-7 -98 -8 -2 -13 5 -13 17 0 12 6 21 13 21 8 0 8 3 -2 9 -8 5 -11 16 -8 24 3
9 -1 17 -13 20 -16 4 -17 2 -7 -14 12 -20 5 -35 -12 -24 -17 10 -13 43 7 54
24 15 30 14 42 -9z m-1653 -38 c1 -23 -3 -42 -8 -42 -16 0 -23 31 -9 40 8 5 9
9 1 14 -15 10 -14 39 2 34 6 -3 13 -23 14 -46z m1603 -22 c0 -13 -20 -13 -40
0 -12 8 -9 10 13 10 15 0 27 -4 27 -10z m-30 -30 c0 -11 -4 -20 -10 -20 -5 0
-10 9 -10 20 0 11 5 20 10 20 6 0 10 -9 10 -20z m50 1 c0 -10 -9 -21 -20 -24
-15 -4 -20 0 -20 13 0 17 12 27 33 29 4 1 7 -7 7 -18z m-1620 -22 c0 -12 -5
-16 -15 -13 -8 4 -15 15 -15 25 0 12 5 16 15 13 8 -4 15 -15 15 -25z m1558
-11 c20 -20 14 -47 -12 -54 -18 -4 -22 -11 -18 -26 4 -18 -11 -37 -30 -38 -14
0 -9 40 5 41 10 0 10 2 0 6 -7 2 -14 14 -14 26 -1 21 -2 21 -6 2 -3 -11 -10
-26 -15 -32 -7 -9 -7 -13 1 -13 6 0 11 -9 11 -20 0 -14 -7 -20 -21 -20 -16 0
-20 5 -16 19 3 12 -1 22 -11 26 -14 5 -14 7 -2 15 8 5 17 7 21 5 3 -3 4 6 2
19 -4 17 1 27 15 35 25 13 62 3 40 -10 -10 -7 -10 -9 2 -9 8 0 22 5 30 10 13
8 13 10 -2 10 -9 0 -20 5 -23 10 -9 14 29 12 43 -2z m62 -13 c0 -16 -27 -32
-37 -22 -3 4 -3 13 0 22 8 20 37 20 37 0z m-1622 -25 c3 -21 2 -22 -12 -11
-19 16 -21 44 -3 39 6 -3 14 -15 15 -28z m0 -71 c1 -32 -2 -38 -12 -29 -8 6
-14 29 -14 51 -1 32 2 38 12 29 8 -6 14 -29 14 -51z m1420 19 c16 -21 13 -95
-5 -102 -12 -5 -14 -1 -11 18 4 19 0 26 -19 30 -25 7 -31 34 -11 54 15 15 33
15 46 0z m-1330 -56 c-2 -19 -12 -29 -38 -38 -19 -7 -30 -13 -23 -13 6 -1 23
3 37 9 23 8 26 7 26 -10 0 -11 -5 -20 -12 -20 -27 0 10 -16 45 -19 5 -1 5 -5
2 -11 -6 -9 7 -14 27 -11 4 0 12 -8 18 -19 6 -11 19 -20 30 -20 25 0 39 -48
19 -61 -10 -6 -11 -9 -1 -9 6 0 12 -9 12 -20 0 -13 -7 -20 -20 -20 -11 0 -20
6 -20 13 0 8 -4 7 -10 -3 -9 -13 -14 -7 -11 13 0 4 -4 7 -10 7 -7 0 -10 17 -7
45 2 25 0 45 -4 45 -8 0 -12 -38 -9 -72 2 -12 -3 -16 -13 -12 -9 3 -13 10 -10
15 3 5 0 9 -6 9 -8 0 -11 15 -8 45 2 25 0 45 -4 45 -5 0 -8 -21 -8 -47 -1 -40
-3 -45 -13 -32 -7 9 -22 19 -35 23 -13 5 -22 15 -22 28 0 17 3 18 14 8 11 -8
20 -9 33 -1 16 9 15 10 -9 11 -32 0 -48 24 -48 73 0 30 5 36 38 51 35 15 17
16 -20 1 -14 -5 -18 -2 -18 13 0 24 26 32 58 18 17 -7 22 -16 20 -34z m1286
-5 c22 -16 18 -50 -7 -55 -11 -2 -17 3 -17 17 0 11 -5 23 -10 26 -11 7 -4 25
9 25 4 0 15 -6 25 -13z m-1376 -21 c3 -12 -1 -17 -10 -14 -7 3 -15 13 -16 22
-3 12 1 17 10 14 7 -3 15 -13 16 -22z m1330 2 c16 -16 15 -48 0 -49 -10 0 -10
-2 0 -6 20 -8 15 -43 -7 -43 -15 0 -19 7 -19 38 0 20 5 40 11 44 8 5 6 8 -5 8
-9 0 -20 5 -23 10 -9 14 29 12 43 -2z m-38 -28 c0 -11 -4 -20 -10 -20 -5 0
-10 9 -10 20 0 11 5 20 10 20 6 0 10 -9 10 -20z m-1290 -21 c0 -12 -5 -16 -15
-13 -8 4 -15 15 -15 25 0 12 5 16 15 13 8 -4 15 -15 15 -25z m1280 -14 c14
-17 10 -47 -7 -53 -8 -2 -13 5 -13 16 0 11 6 23 13 26 6 2 2 4 -10 2 -24 -2
-44 -16 -24 -16 8 0 11 -14 9 -42 -2 -32 -8 -44 -22 -46 -16 -3 -18 2 -15 42
2 25 1 46 -3 46 -9 0 -12 -30 -9 -71 2 -22 -4 -29 -30 -38 -43 -15 -47 -14
-51 11 -2 12 -10 23 -18 26 -12 4 -13 2 -2 -9 6 -7 12 -21 12 -31 0 -10 -6
-18 -12 -19 -10 0 -10 -2 0 -6 21 -8 14 -43 -9 -43 -13 0 -20 6 -18 18 3 37
-1 72 -10 72 -5 0 -7 -9 -4 -20 3 -11 0 -20 -6 -20 -12 0 -15 30 -3 45 11 15
72 35 89 28 12 -5 12 -7 1 -14 -10 -7 -10 -9 2 -9 8 0 21 4 28 9 10 6 8 10
-10 16 l-23 8 23 4 c13 3 22 12 22 23 0 25 27 51 45 44 8 -4 15 -1 15 5 0 16
25 14 40 -4z m-977 -94 c-2 -6 3 -12 10 -12 6 -1 19 -2 27 -3 8 0 14 -7 13
-13 -2 -7 2 -13 7 -13 6 0 10 -16 10 -36 0 -24 -4 -34 -12 -31 -7 2 -12 10
-10 16 1 6 -3 11 -9 11 -6 0 -9 9 -6 20 3 11 1 20 -3 20 -5 0 -10 -12 -12 -27
-7 -59 -78 -29 -78 32 0 23 6 35 23 43 26 12 43 9 40 -7z m107 -16 c7 -8 19
-15 26 -15 23 0 16 -15 -13 -28 -22 -9 -23 -10 -4 -6 13 4 35 7 50 9 14 1 34
5 43 9 11 5 20 1 27 -12 10 -19 31 -21 63 -8 11 5 28 -1 47 -15 32 -24 30 -29
-16 -43 -19 -6 -23 -3 -23 12 0 11 6 23 13 25 6 3 2 6 -10 6 -12 1 -25 -3 -28
-9 -3 -5 -1 -10 4 -10 6 0 11 -16 11 -35 0 -19 -5 -35 -11 -35 -6 0 -9 7 -5
15 3 9 0 15 -10 15 -11 0 -15 6 -11 20 4 17 1 19 -19 14 -19 -5 -24 -2 -24 14
0 11 -7 23 -16 26 -13 5 -14 3 -6 -6 5 -7 10 -30 10 -50 0 -27 -4 -35 -14 -31
-21 8 -30 53 -13 65 11 7 9 8 -6 6 -15 -3 -19 -10 -17 -31 3 -27 2 -28 -30
-25 -20 2 -32 8 -30 16 1 6 -2 12 -7 12 -13 0 -11 74 2 83 8 5 5 7 -7 5 -10
-2 -21 3 -23 10 -7 17 32 15 47 -3z m507 -64 c4 -18 8 -18 37 -6 29 13 34 12
49 -6 22 -25 21 -36 -4 -50 -20 -10 -21 -9 -17 15 3 14 4 26 2 26 -1 0 -10 3
-20 7 -12 4 -15 3 -10 -5 4 -7 2 -13 -3 -13 -6 -1 -17 -2 -23 -3 -8 -1 -12
-12 -10 -27 2 -16 -3 -29 -12 -32 -12 -5 -15 3 -14 36 0 23 5 45 12 50 6 4 1
6 -11 4 -24 -3 -44 -17 -25 -17 7 0 12 -15 12 -36 0 -24 -4 -34 -12 -31 -7 2
-12 10 -10 16 1 7 -2 9 -9 5 -8 -5 -10 1 -7 19 3 18 0 28 -11 32 -13 5 -13 8
-2 15 8 4 20 6 28 3 7 -3 13 0 13 6 0 19 42 12 47 -8z m133 4 c14 -17 10 -47
-7 -53 -8 -2 -13 5 -13 16 0 11 6 23 13 26 6 3 3 4 -7 3 -10 -1 -21 4 -23 11
-6 17 22 15 37 -3z m-326 -16 c-3 -5 0 -9 5 -9 6 0 11 -9 11 -20 0 -14 -7 -20
-21 -20 -16 0 -20 5 -16 19 3 12 -1 22 -11 26 -14 5 -14 8 -3 15 17 10 43 2
35 -11z m96 -14 c19 -23 7 -46 -32 -60 l-37 -12 1 39 c0 37 1 38 18 23 15 -13
23 -14 37 -6 13 8 14 11 3 10 -29 -3 -41 1 -35 11 9 14 31 12 45 -5z m-132
-47 c0 -38 -2 -40 -14 -23 -17 23 -18 52 -1 58 6 3 13 6 14 6 1 1 1 -18 1 -41z
m278 7 c-7 -19 -36 -19 -36 0 0 17 33 38 38 24 2 -5 1 -16 -2 -24z m-418 8
c-5 -25 -28 -28 -28 -4 0 12 6 21 16 21 9 0 14 -7 12 -17z m102 -12 c0 -10 -9
-21 -20 -24 -15 -4 -20 0 -20 13 0 17 12 27 33 29 4 1 7 -7 7 -18z m90 -16 c0
-16 -27 -32 -37 -22 -3 4 -3 13 0 22 8 20 37 20 37 0z"/>
<path d="M1795 3830 c-3 -5 1 -10 9 -10 8 0 18 5 21 10 3 6 -1 10 -9 10 -8 0
-18 -4 -21 -10z"/>
<path d="M1750 3683 c14 -7 13 -36 -2 -51 -9 -9 -9 -12 0 -13 7 -1 17 -2 22
-3 6 0 15 -7 19 -15 6 -9 16 -11 32 -5 23 8 23 8 -6 14 -23 4 -33 13 -41 40
-6 19 -17 35 -23 36 -6 2 -7 0 -1 -3z"/>
<path d="M1057 3539 c7 -7 15 -10 18 -7 3 3 -2 9 -12 12 -14 6 -15 5 -6 -5z"/>
<path d="M2530 3380 c-13 -9 -13 -10 0 -10 8 0 22 5 30 10 13 9 13 10 0 10 -8
0 -22 -5 -30 -10z"/>
<path d="M2530 3240 c-13 -8 -13 -10 2 -10 9 0 20 5 23 10 8 13 -5 13 -25 0z"/>
<path d="M2550 3200 c-8 -5 -10 -10 -5 -10 6 0 17 5 25 10 8 5 11 10 5 10 -5
0 -17 -5 -25 -10z"/>
<path d="M2540 2959 c0 -5 5 -7 10 -4 6 3 10 8 10 11 0 2 -4 4 -10 4 -5 0 -10
-5 -10 -11z"/>
<path d="M2589 2913 c-1 -16 -1 -37 0 -48 2 -20 1 -20 -13 -1 -13 16 -20 17
-38 8 -17 -8 -18 -11 -6 -11 12 -1 16 -11 16 -38 0 -21 -5 -41 -11 -45 -6 -4
0 -9 16 -13 14 -4 29 -16 32 -26 6 -18 8 -18 36 -4 16 9 34 13 38 10 5 -3 4 9
-2 25 -10 25 -9 33 3 40 10 7 11 10 3 10 -7 0 -13 12 -13 26 0 14 -4 23 -8 20
-5 -3 -7 -26 -5 -52 3 -41 2 -45 -11 -34 -9 6 -16 22 -17 34 0 11 -1 45 -2 74
-2 54 -16 73 -18 25z"/>
<path d="M2540 2920 c-13 -9 -13 -10 0 -10 8 0 22 5 30 10 13 9 13 10 0 10 -8
0 -22 -5 -30 -10z"/>
<path d="M2530 2730 c-13 -8 -13 -10 2 -10 9 0 20 5 23 10 8 13 -5 13 -25 0z"/>
<path d="M910 3265 c0 -8 29 -12 39 -5 9 5 4 8 -13 8 -14 0 -26 -2 -26 -3z"/>
<path d="M2160 3120 c0 -5 5 -10 10 -10 6 0 10 5 10 10 0 6 -4 10 -10 10 -5 0
-10 -4 -10 -10z"/>
<path d="M2160 3070 c-13 -9 -13 -10 0 -10 8 0 22 5 30 10 13 9 13 10 0 10 -8
0 -22 -5 -30 -10z"/>
<path d="M680 3096 c0 -2 7 -7 16 -10 8 -3 12 -2 9 4 -6 10 -25 14 -25 6z"/>
<path d="M545 2860 c3 -5 10 -10 16 -10 5 0 9 5 9 10 0 6 -7 10 -16 10 -8 0
-12 -4 -9 -10z"/>
<path d="M555 2810 c3 -5 12 -7 20 -3 21 7 19 13 -6 13 -11 0 -18 -4 -14 -10z"/>
<path d="M2020 2896 c0 -2 7 -7 16 -10 8 -3 12 -2 9 4 -6 10 -25 14 -25 6z"/>
<path d="M1667 2839 c4 -12 0 -25 -8 -30 -12 -7 -12 -9 1 -9 8 0 22 5 30 10
10 6 11 10 3 10 -7 0 -13 9 -13 20 0 11 -4 20 -9 20 -5 0 -7 -9 -4 -21z"/>
<path d="M1287 2829 c7 -7 15 -10 18 -7 3 3 -2 9 -12 12 -14 6 -15 5 -6 -5z"/>
<path d="M1430 2640 c-13 -9 -13 -10 0 -10 8 0 22 5 30 10 13 9 13 10 0 10 -8
0 -22 -5 -30 -10z"/>
<path d="M1050 2750 c0 -5 5 -10 10 -10 6 0 10 5 10 10 0 6 -4 10 -10 10 -5 0
-10 -4 -10 -10z"/>
<path d="M1060 2610 c-13 -9 -13 -10 0 -10 8 0 22 5 30 10 13 9 13 10 0 10 -8
0 -22 -5 -30 -10z"/>
<path d="M545 2540 c3 -5 -1 -11 -7 -13 -8 -4 -7 -6 4 -6 12 -1 16 -11 16 -38
0 -21 -5 -41 -11 -45 -9 -6 -9 -8 1 -8 6 0 12 -12 12 -26 0 -14 4 -23 9 -20 4
3 6 17 3 31 -3 17 0 25 9 25 12 0 12 2 0 9 -9 6 -12 22 -9 49 3 33 0 42 -14
45 -10 3 -16 1 -13 -3z"/>
<path d="M555 2300 c3 -5 12 -7 20 -3 21 7 19 13 -6 13 -11 0 -18 -4 -14 -10z"/>
<path d="M928 2400 c-3 -16 -1 -30 3 -30 4 0 9 14 11 30 3 17 1 30 -3 30 -4 0
-9 -13 -11 -30z"/>
<path d="M2160 2520 c0 -6 7 -10 15 -10 8 0 15 2 15 4 0 2 -7 6 -15 10 -8 3
-15 1 -15 -4z"/>
<path d="M2170 2470 c-8 -5 -10 -10 -5 -10 6 0 17 5 25 10 8 5 11 10 5 10 -5
0 -17 -5 -25 -10z"/>
<path d="M680 2390 c-13 -9 -13 -10 0 -10 8 0 22 5 30 10 13 9 13 10 0 10 -8
0 -22 -5 -30 -10z"/>
<path d="M695 2350 c-3 -5 -1 -10 4 -10 6 0 11 5 11 10 0 6 -2 10 -4 10 -3 0
-8 -4 -11 -10z"/>
<path d="M690 2300 c-13 -9 -13 -10 0 -10 8 0 22 5 30 10 13 9 13 10 0 10 -8
0 -22 -5 -30 -10z"/>
<path d="M1796 2259 c3 -5 0 -9 -7 -9 -7 0 -10 -2 -7 -5 3 -3 16 -2 28 3 l24
9 -22 5 c-12 4 -20 2 -16 -3z"/>
<path d="M457 2179 c7 -7 15 -10 18 -7 3 3 -2 9 -12 12 -14 6 -15 5 -6 -5z"/>
<path d="M460 2092 c0 -15 4 -20 16 -15 9 3 12 9 7 12 -4 3 -11 10 -15 15 -5
5 -8 0 -8 -12z"/>
<path d="M458 2038 c7 -7 16 -7 28 0 14 8 13 10 -10 10 -18 0 -24 -4 -18 -10z"/>
<path d="M2027 2149 c7 -7 15 -10 18 -7 3 3 -2 9 -12 12 -14 6 -15 5 -6 -5z"/>
<path d="M318 2088 c5 -5 16 -8 23 -6 8 3 3 7 -10 11 -17 4 -21 3 -13 -5z"/>
<path d="M1790 2075 c0 -8 29 -12 39 -5 9 5 4 8 -13 8 -14 0 -26 -2 -26 -3z"/>
<path d="M1050 2050 c-18 -12 -2 -12 25 0 13 6 15 9 5 9 -8 0 -22 -4 -30 -9z"/>
<path d="M540 1740 c-13 -8 -12 -10 3 -10 11 0 18 -7 16 -17 -5 -51 1 -72 18
-66 11 4 12 8 5 11 -16 5 -15 39 1 45 10 4 10 6 0 6 -7 1 -13 10 -13 21 0 22
-7 25 -30 10z"/>
<path d="M1057 1779 c7 -7 15 -10 18 -7 3 3 -2 9 -12 12 -14 6 -15 5 -6 -5z"/>
<path d="M1068 1683 c7 -3 16 -2 19 1 4 3 -2 6 -13 5 -11 0 -14 -3 -6 -6z"/>
<path d="M557 1169 c4 -12 0 -25 -8 -30 -12 -7 -12 -9 1 -9 8 0 22 5 30 10 10
6 11 10 3 10 -7 0 -13 9 -13 20 0 11 -4 20 -9 20 -5 0 -7 -9 -4 -21z"/>
<path d="M458 1270 c-5 -31 5 -37 32 -20 13 8 12 10 -4 10 -13 0 -17 5 -13 20
3 11 2 20 -3 20 -4 0 -10 -13 -12 -30z"/>
<path d="M2397 1019 c7 -7 15 -10 18 -7 3 3 -2 9 -12 12 -14 6 -15 5 -6 -5z"/>
<path d="M1430 919 c0 -5 5 -7 10 -4 6 3 10 8 10 11 0 2 -4 4 -10 4 -5 0 -10
-5 -10 -11z"/>
<path d="M1430 880 c-13 -9 -13 -10 0 -10 8 0 22 5 30 10 13 9 13 10 0 10 -8
0 -22 -5 -30 -10z"/>
<path d="M2020 575 c0 -8 29 -12 39 -5 9 5 4 8 -13 8 -14 0 -26 -2 -26 -3z"/>
<path d="M824 352 c-9 -5 -8 -11 2 -20 12 -10 14 -10 14 2 0 8 6 17 13 19 8 4
7 6 -3 6 -8 0 -20 -3 -26 -7z"/>
<path d="M918 339 c6 -7 12 -21 12 -30 0 -10 -6 -20 -12 -22 -9 -4 -8 -6 2 -6
8 0 22 4 30 9 9 6 10 10 3 10 -6 0 -13 10 -15 22 -2 12 -10 23 -18 26 -12 4
-13 2 -2 -9z"/>
<path d="M1068 243 c7 -3 16 -2 19 1 4 3 -2 6 -13 5 -11 0 -14 -3 -6 -6z"/>
</g>
</svg>
